<svg width="384" height="233" viewBox="0 0 384 233" fill="none" xmlns="http://www.w3.org/2000/svg">
<path d="M298.745 87.1983L319.372 91.4943L298.745 87.1983Z" fill="#FF1046"/>
<path d="M298.745 87.1983L319.372 91.4943" stroke="#212121" stroke-width="2" stroke-miterlimit="10" stroke-linecap="round"/>
<path d="M319.947 91.2534L366.046 69.5039L330.193 97.7129" fill="#FF1046"/>
<path d="M319.947 91.2534L366.046 69.5039L330.193 97.7129" stroke="#212121" stroke-width="2" stroke-miterlimit="10" stroke-linecap="round"/>
<path d="M298 85.0073C325.453 76.1095 353.064 67.7737 380.834 60L298 85.0073Z" fill="#FF1046"/>
<path d="M298 85.0073C325.453 76.1095 353.064 67.7737 380.834 60" stroke="#212121" stroke-width="2" stroke-miterlimit="10" stroke-linecap="round"/>
<path d="M330.155 98.4287C337.947 98.1602 345.742 98.1774 353.539 98.4803L330.155 98.4287Z" fill="#FF1046"/>
<path d="M330.155 98.4287C337.947 98.1602 345.742 98.1774 353.539 98.4803" stroke="#212121" stroke-width="2" stroke-miterlimit="10" stroke-linecap="round"/>
<path d="M382.57 60.164C372.791 74.2888 362.25 87.813 350.998 100.67L382.57 60.164Z" fill="#FF1046"/>
<path d="M382.57 60.164C372.791 74.2888 362.25 87.813 350.998 100.67" stroke="#212121" stroke-width="2" stroke-miterlimit="10" stroke-linecap="round"/>
<path d="M317.873 93.0142C318.567 100.507 318.831 108.037 318.664 115.563L317.873 93.0142Z" fill="#FF1046"/>
<path d="M317.873 93.0142C318.567 100.507 318.831 108.037 318.664 115.563" stroke="#212121" stroke-width="2" stroke-miterlimit="10" stroke-linecap="round"/>
<path d="M329.197 97.815C325.954 103.847 322.71 109.878 319.466 115.911L329.197 97.815Z" fill="#FF1046"/>
<path d="M329.197 97.815C325.954 103.847 322.71 109.878 319.466 115.911" stroke="#212121" stroke-width="2" stroke-miterlimit="10" stroke-linecap="round"/>
<path d="M319.918 115.837C326.121 109.691 332.572 103.838 339.27 98.2773L319.918 115.837Z" fill="#FF1046"/>
<path d="M319.918 115.837C326.121 109.691 332.572 103.838 339.27 98.2773" stroke="#212121" stroke-width="2" stroke-miterlimit="10" stroke-linecap="round"/>
<path d="M316.763 112.12C301.944 126.683 304.737 146.042 301.553 163.654C296.503 191.583 271.648 219.261 232.805 228.496C201.778 235.87 165.908 230.297 139.84 216.62C113.773 202.944 97.0549 182.014 89.9119 160.069C86.8774 150.738 85.4498 141.047 87.6209 131.603C92.5625 110.104 115.915 92.1745 143.617 81.4882C149.964 78.7884 156.688 77.1961 163.524 76.7741C170.609 76.57 178.233 78.6878 181.502 83.0016C185.275 87.9724 182.098 94.3896 176.084 98.1899C170.069 101.99 161.884 103.697 153.887 104.888C110.687 111.339 61.9254 104.976 30.475 83.7049C-0.975297 62.4342 -9.7706 25.3597 16.4453 1" stroke="#212121" stroke-width="2" stroke-miterlimit="10" stroke-linecap="round" stroke-dasharray="9.74 9.74"/>
</svg>
