<svg width="399" height="245" viewBox="0 0 399 245" fill="none" xmlns="http://www.w3.org/2000/svg">
<path d="M313.912 85.1228L334.184 89.777Z" fill="#FF1046"/>
<path d="M313.912 85.1228L334.184 89.777" stroke="#212121" stroke-width="2" stroke-miterlimit="10" stroke-linecap="round"/>
<path d="M334.752 89.5344L380.612 68.7179L344.747 96.1575" fill="#FF1046"/>
<path d="M334.752 89.5344L380.612 68.7179L344.747 96.1575" stroke="#212121" stroke-width="2" stroke-miterlimit="10" stroke-linecap="round"/>
<path d="M313.218 82.8962C340.454 74.5431 367.837 66.7525 395.367 59.5244Z" fill="#FF1046"/>
<path d="M313.218 82.8962C340.454 74.5431 367.837 66.7525 395.367 59.5244" stroke="#212121" stroke-width="2" stroke-miterlimit="10" stroke-linecap="round"/>
<path d="M344.694 96.8808C352.384 96.7585 360.072 96.9172 367.758 97.3569Z" fill="#FF1046"/>
<path d="M344.694 96.8808C352.384 96.7585 360.072 96.9172 367.758 97.3569" stroke="#212121" stroke-width="2" stroke-miterlimit="10" stroke-linecap="round"/>
<path d="M397.077 59.7016C387.18 73.596 376.541 86.8778 365.213 99.4819Z" fill="#FF1046"/>
<path d="M397.077 59.7016C387.18 73.596 376.541 86.8778 365.213 99.4819" stroke="#212121" stroke-width="2" stroke-miterlimit="10" stroke-linecap="round"/>
<path d="M332.671 91.2649C333.228 98.7459 333.357 106.256 333.059 113.754Z" fill="#FF1046"/>
<path d="M332.671 91.2649C333.228 98.7459 333.357 106.256 333.059 113.754" stroke="#212121" stroke-width="2" stroke-miterlimit="10" stroke-linecap="round"/>
<path d="M343.761 96.2579C340.454 102.209 337.146 108.16 333.839 114.112Z" fill="#FF1046"/>
<path d="M343.761 96.2579C340.454 102.209 337.146 108.16 333.839 114.112" stroke="#212121" stroke-width="2" stroke-miterlimit="10" stroke-linecap="round"/>
<path d="M334.286 114.043C340.514 108.034 346.981 102.321 353.687 96.904Z" fill="#FF1046"/>
<path d="M334.286 114.043C340.514 108.034 346.981 102.321 353.687 96.904" stroke="#212121" stroke-width="2" stroke-miterlimit="10" stroke-linecap="round"/>
<path d="M322.681 120.505C307.42 135.115 309.895 154.957 306.353 172.903C300.736 201.36 275.08 229.19 235.601 237.904C204.067 244.862 167.867 238.493 141.734 224.024C115.601 209.555 99.0608 187.847 92.2298 165.278C89.3281 155.683 88.059 145.749 90.4276 136.135C95.8185 114.249 119.778 96.3569 148.006 85.9506C154.479 83.3094 161.313 81.8074 168.239 81.5039C175.413 81.4278 183.091 83.7354 186.32 88.2065C190.048 93.3587 186.717 99.8596 180.561 103.632C174.406 107.404 166.091 108.996 157.976 110.064C114.139 115.85 64.9057 108.433 33.4626 86.1C2.01948 63.7668 -6.20926 25.7012 20.7641 1.289" stroke="#212121" stroke-width="2" stroke-miterlimit="10" stroke-linecap="round" stroke-dasharray="9.74 9.74"/>
</svg>
