<svg width="25" height="24" viewBox="0 0 25 24" fill="none" xmlns="http://www.w3.org/2000/svg">
<g id="career-growth 1" clip-path="url(#clip0_14619_1572)">
<g id="Group">
<path id="Vector" d="M6.50101 12.0001C9.81001 12.0001 12.501 9.3091 12.501 6.0001C12.501 2.6911 9.81001 9.96809e-05 6.50101 9.96809e-05C3.19201 9.96809e-05 0.501008 2.6911 0.501008 6.0001C0.501008 9.3091 3.19201 12.0001 6.50101 12.0001ZM6.50101 2.0001C8.70701 2.0001 10.501 3.7941 10.501 6.0001C10.5008 6.53634 10.3921 7.067 10.1816 7.5602C9.97108 8.05339 9.66305 8.49895 9.27601 8.8701C9.05263 8.31826 8.66976 7.84556 8.17633 7.51246C7.68291 7.17935 7.10135 7.00096 6.50601 7.0001H6.49601C5.90047 7.00062 5.31862 7.17873 4.82484 7.51165C4.33106 7.84458 3.94778 8.31721 3.72401 8.8691C3.33768 8.49772 3.03024 8.05221 2.8201 7.55925C2.60996 7.06628 2.50143 6.53599 2.50101 6.0001C2.50101 3.7941 4.29501 2.0001 6.50101 2.0001ZM5.00101 4.5001C5.00107 4.30305 5.03995 4.10794 5.11542 3.92592C5.19089 3.7439 5.30147 3.57852 5.44085 3.43923C5.58023 3.29994 5.74568 3.18947 5.92775 3.11413C6.10983 3.03878 6.30496 3.00003 6.50201 3.0001C6.69906 3.00017 6.89416 3.03904 7.07619 3.11451C7.25821 3.18998 7.42359 3.30056 7.56288 3.43994C7.70216 3.57932 7.81263 3.74477 7.88798 3.92685C7.96333 4.10892 8.00207 4.30405 8.00201 4.5011C8.00188 4.89906 7.84366 5.28066 7.56217 5.56197C7.28068 5.84327 6.89897 6.00123 6.50101 6.0011C6.10305 6.00097 5.72145 5.84275 5.44014 5.56126C5.15884 5.27977 5.00088 4.89806 5.00101 4.5001ZM23.864 6.8791C23.7416 6.9268 23.611 6.94991 23.4797 6.94713C23.3484 6.94435 23.2189 6.91572 23.0986 6.86288C22.9784 6.81004 22.8697 6.73402 22.7788 6.63918C22.688 6.54433 22.6167 6.43251 22.569 6.3101L21.455 3.4551C17.798 11.2071 11.181 16.4211 1.76101 18.9661C1.63415 19.0003 1.5018 19.0092 1.37151 18.9923C1.24121 18.9753 1.11554 18.9329 1.00164 18.8674C0.887753 18.8019 0.787881 18.7146 0.707729 18.6104C0.627578 18.5063 0.568717 18.3875 0.534508 18.2606C0.500299 18.1337 0.491411 18.0014 0.508351 17.8711C0.525292 17.7408 0.56773 17.6151 0.633242 17.5012C0.698753 17.3873 0.786056 17.2875 0.890165 17.2073C0.994274 17.1272 1.11315 17.0683 1.24001 17.0341C10.099 14.6411 16.297 9.7551 19.69 2.5021L16.618 3.7001C16.371 3.79651 16.0957 3.79082 15.8529 3.6843C15.61 3.57778 15.4194 3.37915 15.323 3.1321C15.2266 2.88505 15.2323 2.60982 15.3388 2.36696C15.4453 2.1241 15.644 1.93351 15.891 1.8371L20.292 0.1201C20.7544 -0.0592215 21.2689 -0.0481678 21.7232 0.150844C22.1774 0.349855 22.5344 0.720632 22.716 1.1821L24.433 5.5831C24.5294 5.83015 24.5237 6.10537 24.4172 6.34822C24.3107 6.59107 24.112 6.78167 23.865 6.8781L23.864 6.8791ZM23.501 9.0001V23.0001C23.501 23.2653 23.3957 23.5197 23.2081 23.7072C23.0206 23.8947 22.7662 24.0001 22.501 24.0001C22.2358 24.0001 21.9814 23.8947 21.7939 23.7072C21.6064 23.5197 21.501 23.2653 21.501 23.0001V9.0001C21.501 8.73488 21.6064 8.48053 21.7939 8.29299C21.9814 8.10546 22.2358 8.0001 22.501 8.0001C22.7662 8.0001 23.0206 8.10546 23.2081 8.29299C23.3957 8.48053 23.501 8.73488 23.501 9.0001ZM18.501 14.0001V23.0001C18.501 23.2653 18.3957 23.5197 18.2081 23.7072C18.0206 23.8947 17.7662 24.0001 17.501 24.0001C17.2358 24.0001 16.9814 23.8947 16.7939 23.7072C16.6064 23.5197 16.501 23.2653 16.501 23.0001V14.0001C16.501 13.7349 16.6064 13.4805 16.7939 13.293C16.9814 13.1055 17.2358 13.0001 17.501 13.0001C17.7662 13.0001 18.0206 13.1055 18.2081 13.293C18.3957 13.4805 18.501 13.7349 18.501 14.0001ZM13.501 18.0001V23.0001C13.501 23.2653 13.3957 23.5197 13.2081 23.7072C13.0206 23.8947 12.7662 24.0001 12.501 24.0001C12.2358 24.0001 11.9814 23.8947 11.7939 23.7072C11.6064 23.5197 11.501 23.2653 11.501 23.0001V18.0001C11.501 17.7349 11.6064 17.4805 11.7939 17.293C11.9814 17.1055 12.2358 17.0001 12.501 17.0001C12.7662 17.0001 13.0206 17.1055 13.2081 17.293C13.3957 17.4805 13.501 17.7349 13.501 18.0001ZM8.50101 20.0001V23.0001C8.50101 23.2653 8.39565 23.5197 8.20812 23.7072C8.02058 23.8947 7.76623 24.0001 7.50101 24.0001C7.23579 24.0001 6.98144 23.8947 6.7939 23.7072C6.60637 23.5197 6.50101 23.2653 6.50101 23.0001V20.0001C6.50101 19.7349 6.60637 19.4805 6.7939 19.293C6.98144 19.1055 7.23579 19.0001 7.50101 19.0001C7.76623 19.0001 8.02058 19.1055 8.20812 19.293C8.39565 19.4805 8.50101 19.7349 8.50101 20.0001ZM3.50101 22.0001V23.0001C3.50101 23.2653 3.39565 23.5197 3.20812 23.7072C3.02058 23.8947 2.76622 24.0001 2.50101 24.0001C2.23579 24.0001 1.98144 23.8947 1.7939 23.7072C1.60636 23.5197 1.50101 23.2653 1.50101 23.0001V22.0001C1.50101 21.7349 1.60636 21.4805 1.7939 21.293C1.98144 21.1055 2.23579 21.0001 2.50101 21.0001C2.76622 21.0001 3.02058 21.1055 3.20812 21.293C3.39565 21.4805 3.50101 21.7349 3.50101 22.0001Z" fill="#E50914"/>
</g>
</g>
<defs>
<clipPath id="clip0_14619_1572">
<rect width="24" height="24" fill="white" transform="translate(0.5)"/>
</clipPath>
</defs>
</svg>
