<svg width="25" height="24" viewBox="0 0 25 24" fill="none" xmlns="http://www.w3.org/2000/svg">
<g id="diploma (4) 1" clip-path="url(#clip0_14619_1568)">
<path id="Vector" d="M11.5 12C11.7652 12 12.0196 12.1054 12.2071 12.2929C12.3946 12.4804 12.5 12.7348 12.5 13C12.5 13.2652 12.3946 13.5196 12.2071 13.7071C12.0196 13.8946 11.7652 14 11.5 14H8.5C8.23478 14 7.98043 13.8946 7.79289 13.7071C7.60536 13.5196 7.5 13.2652 7.5 13C7.5 12.7348 7.60536 12.4804 7.79289 12.2929C7.98043 12.1054 8.23478 12 8.5 12H11.5ZM17.5 9C17.5 8.73478 17.3946 8.48043 17.2071 8.29289C17.0196 8.10536 16.7652 8 16.5 8H8.5C8.23478 8 7.98043 8.10536 7.79289 8.29289C7.60536 8.48043 7.5 8.73478 7.5 9C7.5 9.26522 7.60536 9.51957 7.79289 9.70711C7.98043 9.89464 8.23478 10 8.5 10H16.5C16.7652 10 17.0196 9.89464 17.2071 9.70711C17.3946 9.51957 17.5 9.26522 17.5 9ZM8.5 6H16.5C16.7652 6 17.0196 5.89464 17.2071 5.70711C17.3946 5.51957 17.5 5.26522 17.5 5C17.5 4.73478 17.3946 4.48043 17.2071 4.29289C17.0196 4.10536 16.7652 4 16.5 4H8.5C8.23478 4 7.98043 4.10536 7.79289 4.29289C7.60536 4.48043 7.5 4.73478 7.5 5C7.5 5.26522 7.60536 5.51957 7.79289 5.70711C7.98043 5.89464 8.23478 6 8.5 6ZM20.5 19.444V23.277C20.5001 23.4197 20.4578 23.5591 20.3786 23.6777C20.2994 23.7964 20.1868 23.8888 20.055 23.9434C19.9232 23.998 19.7781 24.0123 19.6382 23.9845C19.4983 23.9566 19.3698 23.8879 19.269 23.787L18.5 23.019L17.731 23.787C17.6302 23.8879 17.5017 23.9566 17.3618 23.9845C17.2219 24.0123 17.0768 23.998 16.945 23.9434C16.8132 23.8888 16.7006 23.7964 16.6214 23.6777C16.5422 23.5591 16.4999 23.4197 16.5 23.277V19.444C15.7373 19.0058 15.141 18.3277 14.8038 17.5154C14.4666 16.703 14.4076 15.8019 14.6358 14.9525C14.864 14.103 15.3667 13.3529 16.0656 12.8189C16.7646 12.2849 17.6204 11.997 18.5 12C18.838 12.0042 19.1741 12.0519 19.5 12.142V5C19.5 4.20435 19.1839 3.44129 18.6213 2.87868C18.0587 2.31607 17.2956 2 16.5 2H8.5C7.70435 2 6.94129 2.31607 6.37868 2.87868C5.81607 3.44129 5.5 4.20435 5.5 5V17C5.5 17.7956 5.81607 18.5587 6.37868 19.1213C6.94129 19.6839 7.70435 20 8.5 20H13.5C13.7652 20 14.0196 20.1054 14.2071 20.2929C14.3946 20.4804 14.5 20.7348 14.5 21C14.5 21.2652 14.3946 21.5196 14.2071 21.7071C14.0196 21.8946 13.7652 22 13.5 22H8.5C7.17441 21.9984 5.90356 21.4711 4.96622 20.5338C4.02888 19.5964 3.50159 18.3256 3.5 17V5C3.50159 3.67441 4.02888 2.40356 4.96622 1.46622C5.90356 0.528882 7.17441 0.00158786 8.5 0L16.5 0C17.8256 0.00158786 19.0964 0.528882 20.0338 1.46622C20.9711 2.40356 21.4984 3.67441 21.5 5V13.382C21.8917 13.8219 22.1801 14.3438 22.344 14.9096C22.5079 15.4753 22.5433 16.0706 22.4474 16.6518C22.3515 17.2329 22.1269 17.7853 21.7899 18.2684C21.453 18.7516 21.0122 19.1532 20.5 19.444ZM20.5 16C20.5 15.6044 20.3827 15.2178 20.1629 14.8889C19.9432 14.56 19.6308 14.3036 19.2654 14.1522C18.8999 14.0009 18.4978 13.9613 18.1098 14.0384C17.7219 14.1156 17.3655 14.3061 17.0858 14.5858C16.8061 14.8655 16.6156 15.2219 16.5384 15.6098C16.4613 15.9978 16.5009 16.3999 16.6522 16.7654C16.8036 17.1308 17.06 17.4432 17.3889 17.6629C17.7178 17.8827 18.1044 18 18.5 18C19.0304 18 19.5391 17.7893 19.9142 17.4142C20.2893 17.0391 20.5 16.5304 20.5 16Z" fill="#E50914"/>
</g>
<defs>
<clipPath id="clip0_14619_1568">
<rect width="24" height="24" fill="white" transform="translate(0.5)"/>
</clipPath>
</defs>
</svg>
