<svg width="26" height="31" viewBox="0 0 26 31" fill="none" xmlns="http://www.w3.org/2000/svg">
<g clip-path="url(#clip0_3_687)">
<mask id="mask0_3_687" style="mask-type:luminance" maskUnits="userSpaceOnUse" x="0" y="0" width="26" height="31">
<path d="M26 0.890625H0V30.8906H26V0.890625Z" fill="white"/>
</mask>
<g mask="url(#mask0_3_687)">
<path d="M25.44 5.09188C25.08 4.73187 24.48 4.49187 24 4.49187H22.92C20.52 4.49187 18.24 3.89188 16.2 2.57187L13.56 1.01187C13.2 0.891875 12.84 0.891875 12.48 1.01187L9.84 2.69187C7.8 3.89188 5.52 4.49187 3.12 4.49187H2.04C0.96 4.49187 0 5.45188 0 6.53188V14.0919C0 20.6919 3.84 26.6919 9.84 29.4519L12.6 30.7719C12.84 30.8919 13.2 30.8919 13.44 30.7719L16.2 29.4519C22.08 26.5718 25.92 20.5719 25.92 14.0919V6.53188C26.04 5.93188 25.8 5.45188 25.44 5.09188ZM3.12 6.53188C5.88 6.53188 8.52 5.81188 10.8 4.37188L12.96 3.05188L15.12 4.37188C17.4 5.81188 20.16 6.53188 22.8 6.53188H24V9.53187H22.92C20.52 9.53187 18.24 8.93188 16.2 7.61188L13.56 6.05188C13.2 5.81188 12.84 5.81188 12.48 6.05188L9.84 7.61188C7.8 8.81188 5.52 9.53187 3.12 9.53187H2.04V6.53188H3.12ZM15.36 27.7719L13.08 28.8519L10.68 27.7719C5.4 25.2519 2.04 19.9719 2.04 14.0919V11.4519H3.12C5.88 11.4519 8.52 10.7319 10.8 9.29187L12.96 8.09188L15.12 9.29187C17.4 10.7319 20.16 11.4519 22.8 11.4519H24V14.0919C24 19.8519 20.64 25.2519 15.36 27.7719Z" fill="#C39362"/>
<path d="M12.1183 20.6925C11.8783 20.6925 11.6383 20.5725 11.3983 20.4525L8.75828 17.6925C8.39828 17.3325 8.39828 16.6125 8.75828 16.2525C9.11828 15.8925 9.83828 15.8925 10.1983 16.2525L11.9983 18.0525L15.2383 13.6125C15.5983 13.1325 16.1983 13.1325 16.6783 13.3725C17.1583 13.7325 17.1583 14.3325 16.9183 14.8125L12.9583 20.0925C12.7183 20.5725 12.4783 20.6925 12.1183 20.6925Z" fill="#484848"/>
</g>
</g>
<defs>
<clipPath id="clip0_3_687">
<rect width="26" height="30" fill="white" transform="translate(0 0.890625)"/>
</clipPath>
</defs>
</svg>
