<svg width="25" height="24" viewBox="0 0 25 24" fill="none" xmlns="http://www.w3.org/2000/svg">
<g id="favorite (3) 3">
<path id="Vector" fill-rule="evenodd" clip-rule="evenodd" d="M21.5094 22.9079C21.3359 22.9079 21.1719 22.8563 21.0312 22.7626L19.2922 21.586L17.5531 22.7626C17.4078 22.8563 17.2437 22.9079 17.075 22.9079C16.7937 22.9079 16.5266 22.7673 16.3719 22.5329C16.2734 22.3876 16.2266 22.2235 16.2266 22.0548V17.0017C16.2266 16.5329 16.6062 16.1485 17.0797 16.1485C17.5531 16.1485 17.5578 16.2517 17.7172 16.4345C18.1156 16.8892 18.6922 17.147 19.2969 17.147C19.9016 17.147 20.2719 16.9829 20.6891 16.622C20.7453 16.5657 20.8109 16.5048 20.8719 16.4345C21.0266 16.2563 21.2609 16.1532 21.5094 16.1532C21.7578 16.1532 21.9266 16.2376 22.0766 16.3688C22.2547 16.5282 22.3578 16.7579 22.3578 17.0063V22.0595C22.3578 22.5282 21.9781 22.9126 21.5047 22.9126L21.5094 22.9079ZM17.9281 20.4517L18.8187 19.8517C18.9641 19.7579 19.1281 19.7063 19.2969 19.7063C19.4656 19.7063 19.6297 19.7579 19.775 19.8563L20.6609 20.4563V18.6188L20.3562 18.7079C20.0141 18.8063 19.6672 18.8579 19.2922 18.8579C18.9172 18.8579 18.5703 18.811 18.2281 18.7079L17.9234 18.6188V20.4563L17.9281 20.4517ZM3.36875 22.6032C2.9 22.6032 2.51562 22.2235 2.51562 21.7501V20.2501C2.51562 16.472 5.59063 13.397 9.36875 13.397H12.5047C12.9734 13.397 13.3578 13.7767 13.3578 14.2501C13.3578 14.7235 12.9781 15.1032 12.5047 15.1032H9.36875C6.52812 15.1032 4.22187 17.4142 4.22187 20.2501V20.897H12.5047C12.9734 20.897 13.3578 21.2767 13.3578 21.7501C13.3578 22.2235 12.9781 22.6032 12.5047 22.6032H3.36875ZM13.1187 12.1032C10.1703 12.1032 7.76562 9.70322 7.76562 6.7501C7.76562 3.79697 10.1656 1.39697 13.1187 1.39697C16.0719 1.39697 18.4719 3.79697 18.4719 6.7501C18.4719 9.70322 16.0719 12.1032 13.1187 12.1032ZM13.1187 3.10322C11.1078 3.10322 9.47187 4.73916 9.47187 6.7501C9.47187 8.76103 11.1078 10.397 13.1187 10.397C15.1297 10.397 16.7656 8.76103 16.7656 6.7501C16.7656 4.73916 15.1297 3.10322 13.1187 3.10322Z" fill="#E50914"/>
<path id="Vector_2" fill-rule="evenodd" clip-rule="evenodd" d="M19.2922 18.7826C17.225 18.7826 15.5469 17.0998 15.5469 15.0373C15.5469 12.9748 17.2297 11.292 19.2922 11.292C21.3547 11.292 23.0375 12.9748 23.0375 15.0373C23.0375 17.0998 21.3547 18.7826 19.2922 18.7826ZM19.2828 12.8576C18.1109 12.8857 17.1734 13.8232 17.1547 14.9998C17.1453 15.5811 17.3609 16.1295 17.7641 16.5514C18.1672 16.9686 18.7062 17.2076 19.2828 17.217H19.2969C20.4687 17.1889 21.4062 16.2514 21.425 15.0748C21.4484 13.8795 20.4922 12.8857 19.2969 12.8576H19.2922H19.2875H19.2828Z" fill="#E50914"/>
</g>
</svg>
