<svg width="231" height="30" viewBox="0 0 231 30" fill="none" xmlns="http://www.w3.org/2000/svg">
<path d="M0.866402 4.14315C0.6003 4.21694 0.444395 4.49247 0.518179 4.75857C0.591963 5.02467 0.867495 5.18058 1.1336 5.1068L0.866402 4.14315ZM62.7316 16.8559L63.0604 16.4793L62.7316 16.8559ZM123.716 16.8559L123.336 16.5315L123.716 16.8559ZM111.893 4.62497L112.26 4.96418L111.893 4.62497ZM119.111 20.935L119.401 21.3426V21.3426L119.111 20.935ZM161.925 1.02031L161.943 0.52062L161.925 1.02031ZM231 7.45747L225.476 5.77721L226.783 11.4009L231 7.45747ZM3.08114 4.61324C3.35016 4.5509 3.5177 4.28229 3.45536 4.01328C3.39303 3.74426 3.12441 3.57672 2.8554 3.63906L3.08114 4.61324ZM6.89388 2.84833C6.62135 2.89285 6.43651 3.14987 6.48102 3.4224C6.52554 3.69493 6.78256 3.87977 7.05509 3.83525L6.89388 2.84833ZM11.0805 3.29222C11.355 3.26262 11.5536 3.01606 11.524 2.74151C11.4944 2.46696 11.2478 2.26838 10.9733 2.29798L11.0805 3.29222ZM15.063 1.96136C14.7873 1.97716 14.5766 2.21347 14.5924 2.48916C14.6082 2.76485 14.8445 2.97552 15.1202 2.95972L15.063 1.96136ZM19.1746 2.82658C19.4507 2.82425 19.6727 2.59851 19.6703 2.32238C19.668 2.04624 19.4423 1.82428 19.1661 1.82661L19.1746 2.82658ZM23.2724 1.89263C22.9965 1.88138 22.7637 2.09593 22.7524 2.37185C22.7412 2.64776 22.9557 2.88055 23.2316 2.8918L23.2724 1.89263ZM27.28 3.15888C27.555 3.18406 27.7984 2.98154 27.8235 2.70655C27.8487 2.43156 27.6462 2.18822 27.3712 2.16304L27.28 3.15888ZM31.452 2.64462C31.1787 2.60498 30.925 2.79439 30.8854 3.06767C30.8457 3.34096 31.0351 3.59463 31.3084 3.63426L31.452 2.64462ZM35.3042 4.32639C35.5749 4.38111 35.8387 4.20605 35.8934 3.93539C35.9481 3.66472 35.7731 3.40094 35.5024 3.34622L35.3042 4.32639ZM39.5062 4.27736C39.2392 4.20688 38.9656 4.36619 38.8951 4.63319C38.8246 4.90019 38.9839 5.17376 39.2509 5.24424L39.5062 4.27736ZM43.1325 6.39744C43.3946 6.48433 43.6775 6.34229 43.7644 6.08017C43.8513 5.81806 43.7093 5.53513 43.4471 5.44824L43.1325 6.39744ZM47.3079 6.86901C47.0521 6.76512 46.7604 6.8883 46.6565 7.14416C46.5526 7.40001 46.6758 7.69164 46.9317 7.79554L47.3079 6.86901ZM50.6275 9.4461C50.8756 9.56742 51.175 9.46468 51.2964 9.21662C51.4177 8.96856 51.3149 8.66911 51.0669 8.54779L50.6275 9.4461ZM54.6984 10.4886C54.4598 10.3496 54.1537 10.4305 54.0147 10.6691C53.8758 10.9078 53.9566 11.2139 54.1953 11.3528L54.6984 10.4886ZM57.6098 13.515C57.8374 13.6714 58.1487 13.6137 58.3051 13.3861C58.4615 13.1585 58.4038 12.8473 58.1762 12.6908L57.6098 13.515ZM61.4802 15.1529C61.2653 14.9795 60.9505 15.0131 60.7771 15.228C60.6037 15.443 60.6373 15.7577 60.8522 15.9311L61.4802 15.1529ZM63.8802 18.4809C64.0941 18.6556 64.4091 18.6239 64.5838 18.4101C64.7585 18.1963 64.7268 17.8813 64.513 17.7066L63.8802 18.4809ZM67.5196 19.9978C67.2943 19.8382 66.9822 19.8914 66.8226 20.1168C66.663 20.3421 66.7163 20.6542 66.9416 20.8138L67.5196 19.9978ZM70.1666 22.9253C70.4032 23.0678 70.7104 22.9915 70.8529 22.755C70.9954 22.5184 70.9192 22.2112 70.6826 22.0687L70.1666 22.9253ZM73.9927 23.8901C73.7456 23.7667 73.4454 23.867 73.322 24.1141C73.1986 24.3611 73.2989 24.6614 73.5459 24.7848L73.9927 23.8901ZM77.0614 26.3625C77.3179 26.465 77.6088 26.3401 77.7112 26.0837C77.8136 25.8272 77.6888 25.5363 77.4323 25.4339L77.0614 26.3625ZM80.9952 26.6819C80.7308 26.602 80.4518 26.7516 80.3719 27.0159C80.292 27.2802 80.4416 27.5593 80.7059 27.6392L80.9952 26.6819ZM84.4488 28.5921C84.7192 28.6483 84.9839 28.4746 85.0401 28.2043C85.0963 27.9339 84.9227 27.6692 84.6523 27.613L84.4488 28.5921ZM88.3761 28.2153C88.1018 28.1834 87.8536 28.3799 87.8217 28.6542C87.7898 28.9284 87.9863 29.1767 88.2606 29.2086L88.3761 28.2153ZM92.1115 29.4838C92.3876 29.4913 92.6174 29.2736 92.6249 28.9976C92.6324 28.7215 92.4147 28.4917 92.1387 28.4842L92.1115 29.4838ZM95.9112 28.4216C95.6356 28.4382 95.4256 28.675 95.4421 28.9507C95.4587 29.2263 95.6955 29.4364 95.9712 29.4198L95.9112 28.4216ZM99.81 29.024C100.083 28.9841 100.272 28.7302 100.232 28.457C100.193 28.1837 99.9387 27.9946 99.6654 28.0345L99.81 29.024ZM103.374 27.3335C103.105 27.396 102.938 27.6647 103 27.9337C103.063 28.2026 103.332 28.3701 103.601 28.3076L103.374 27.3335ZM107.318 27.2827C107.581 27.1985 107.726 26.917 107.642 26.654C107.557 26.391 107.276 26.2461 107.013 26.3302L107.318 27.2827ZM110.563 25.0325C110.308 25.1378 110.186 25.4301 110.292 25.6854C110.397 25.9406 110.689 26.0622 110.945 25.9569L110.563 25.0325ZM114.446 24.3389C114.691 24.2126 114.788 23.9111 114.661 23.6656C114.535 23.42 114.234 23.3234 113.988 23.4497L114.446 24.3389ZM117.264 21.5743C117.031 21.7225 116.962 22.0315 117.111 22.2645C117.259 22.4975 117.568 22.5662 117.801 22.418L117.264 21.5743ZM117.095 20.8406C116.82 20.8548 116.608 21.0899 116.622 21.3657C116.636 21.6415 116.871 21.8535 117.147 21.8393L117.095 20.8406ZM112.967 20.8363C113.209 20.9701 113.513 20.8828 113.647 20.6412C113.781 20.3997 113.693 20.0954 113.452 19.9616L112.967 20.8363ZM110.643 17.3854C110.486 17.158 110.175 17.1008 109.948 17.2575C109.72 17.4142 109.663 17.7256 109.82 17.9529L110.643 17.3854ZM108.215 14.0081C108.262 14.2804 108.52 14.4634 108.792 14.4169C109.065 14.3705 109.248 14.1122 109.201 13.84L108.215 14.0081ZM109.376 10.0099C109.445 9.74257 109.285 9.46966 109.018 9.4003C108.75 9.33095 108.477 9.4914 108.408 9.75869L109.376 10.0099ZM110.204 5.92637C110.046 6.15321 110.102 6.46476 110.329 6.62224C110.556 6.77972 110.868 6.72349 111.025 6.49665L110.204 5.92637ZM113.879 3.53022C114.105 3.37114 114.159 3.0592 114 2.83348C113.841 2.60776 113.529 2.55374 113.303 2.71282L113.879 3.53022ZM117.802 1.16463C117.526 1.17033 117.306 1.39877 117.312 1.67485C117.318 1.95093 117.546 2.17012 117.822 2.16441L117.802 1.16463ZM121.809 3.37103C122.039 3.52371 122.349 3.46096 122.502 3.23087C122.655 3.00078 122.592 2.69048 122.362 2.5378L121.809 3.37103ZM125.523 6.06327C125.394 5.81914 125.092 5.72587 124.848 5.85493C124.603 5.98399 124.51 6.28652 124.639 6.53065L125.523 6.06327ZM125.656 10.6506C125.654 10.9267 125.876 11.1524 126.152 11.1546C126.428 11.1569 126.654 10.9349 126.656 10.6587L125.656 10.6506ZM125.446 15.2319C125.578 14.9895 125.489 14.6858 125.247 14.5535C125.004 14.4213 124.701 14.5107 124.568 14.7531L125.446 15.2319ZM122.314 17.6288C122.118 17.8233 122.117 18.1399 122.311 18.3359C122.506 18.5319 122.822 18.5332 123.018 18.3387L122.314 17.6288ZM120.656 20.4075C120.873 20.2372 120.911 19.923 120.741 19.7055C120.571 19.4881 120.257 19.4498 120.039 19.62L120.656 20.4075ZM120.906 19.9112C121.109 19.724 121.122 19.4077 120.935 19.2047C120.748 19.0016 120.431 18.9887 120.228 19.1758L120.906 19.9112ZM123.289 16.5196C123.075 16.6949 123.045 17.01 123.22 17.2234C123.395 17.4368 123.71 17.4677 123.924 17.2924L123.289 16.5196ZM127.081 14.8257C127.303 14.6609 127.349 14.3477 127.184 14.1261C127.019 13.9046 126.706 13.8585 126.485 14.0233L127.081 14.8257ZM129.794 11.6791C129.565 11.8335 129.504 12.1442 129.659 12.3732C129.813 12.6021 130.124 12.6626 130.353 12.5082L129.794 11.6791ZM133.727 10.3463C133.963 10.2029 134.038 9.89537 133.894 9.65938C133.751 9.42339 133.443 9.34833 133.207 9.49173L133.727 10.3463ZM136.724 7.4728C136.481 7.60413 136.39 7.90751 136.522 8.15042C136.653 8.39334 136.957 8.48379 137.199 8.35246L136.724 7.4728ZM140.771 6.54513C141.021 6.42742 141.128 6.1295 141.01 5.8797C140.892 5.6299 140.594 5.52282 140.345 5.64052L140.771 6.54513ZM144.069 4.02166C143.813 4.12369 143.687 4.41441 143.789 4.67102C143.891 4.92762 144.182 5.05293 144.439 4.95091L144.069 4.02166ZM148.199 3.60374C148.462 3.52003 148.608 3.23885 148.524 2.9757C148.44 2.71255 148.159 2.56708 147.896 2.65079L148.199 3.60374ZM151.82 1.57158C151.551 1.6337 151.383 1.90218 151.445 2.17124C151.507 2.44031 151.776 2.60807 152.045 2.54595L151.82 1.57158ZM155.962 1.82859C156.236 1.79196 156.428 1.54039 156.391 1.26669C156.355 0.992983 156.103 0.800798 155.829 0.837427L155.962 1.82859ZM159.898 0.5107C159.622 0.51753 159.404 0.746857 159.411 1.02291C159.418 1.29897 159.647 1.51722 159.923 1.51039L159.898 0.5107ZM163.835 1.61607C164.11 1.63378 164.348 1.42475 164.366 1.14917C164.383 0.8736 164.174 0.635844 163.899 0.618131L163.835 1.61607ZM167.795 0.97195C167.521 0.94018 167.273 1.1368 167.241 1.4111C167.209 1.68541 167.406 1.93354 167.68 1.96531L167.795 0.97195ZM171.511 2.4924C171.783 2.53544 172.039 2.34922 172.082 2.07645C172.126 1.80368 171.939 1.54767 171.667 1.50462L171.511 2.4924ZM175.511 2.17637C175.24 2.12481 174.978 2.30294 174.927 2.57423C174.875 2.84552 175.053 3.10723 175.324 3.15879L175.511 2.17637ZM179.124 3.92663C179.395 3.98403 179.66 3.81158 179.717 3.54147C179.775 3.27136 179.602 3.00586 179.332 2.94847L179.124 3.92663ZM183.135 3.78395C182.866 3.72326 182.598 3.89245 182.538 4.16184C182.477 4.43123 182.646 4.69881 182.916 4.7595L183.135 3.78395ZM186.705 5.62254C186.974 5.6841 187.242 5.51578 187.304 5.24659C187.366 4.97739 187.197 4.70927 186.928 4.64771L186.705 5.62254ZM190.717 5.50612C190.447 5.44603 190.18 5.6158 190.12 5.88533C190.06 6.15485 190.23 6.42206 190.499 6.48216L190.717 5.50612ZM194.305 7.30599C194.576 7.36236 194.84 7.18892 194.897 6.91859C194.953 6.64827 194.78 6.38342 194.509 6.32705L194.305 7.30599ZM198.312 7.07943C198.041 7.02898 197.78 7.20817 197.729 7.47966C197.679 7.75115 197.858 8.01215 198.129 8.0626L198.312 7.07943ZM201.976 8.72113C202.249 8.76352 202.504 8.57668 202.547 8.30381C202.589 8.03095 202.402 7.77538 202.129 7.73298L201.976 8.72113ZM205.963 8.25849C205.689 8.22622 205.44 8.42238 205.408 8.69663C205.376 8.97088 205.572 9.21936 205.846 9.25164L205.963 8.25849ZM209.737 9.62542C210.012 9.64565 210.252 9.4388 210.272 9.1634C210.292 8.888 210.085 8.64834 209.81 8.6281L209.737 9.62542ZM213.667 8.81681C213.39 8.81032 213.161 9.02885 213.155 9.30492C213.148 9.58099 213.367 9.81004 213.643 9.81654L213.667 8.81681ZM217.557 9.8026C217.833 9.79395 218.05 9.56318 218.042 9.28717C218.033 9.01116 217.802 8.79444 217.526 8.8031L217.557 9.8026ZM221.379 8.56993C221.104 8.59476 220.901 8.83784 220.926 9.11286C220.951 9.38789 221.194 9.59071 221.469 9.56588L221.379 8.56993ZM225.354 9.09592C225.627 9.05439 225.815 8.79941 225.773 8.5264C225.732 8.2534 225.477 8.06576 225.204 8.10729L225.354 9.09592ZM228.997 7.40963C228.727 7.46796 228.555 7.73405 228.614 8.00396C228.672 8.27387 228.938 8.44539 229.208 8.38706L228.997 7.40963ZM1.1336 5.1068C1.73924 4.93887 2.38953 4.77351 3.08114 4.61324L2.8554 3.63906C2.15081 3.80233 1.48666 3.97117 0.866402 4.14315L1.1336 5.1068ZM7.05509 3.83525C8.31883 3.62882 9.6647 3.44483 11.0805 3.29222L10.9733 2.29798C9.5396 2.45252 8.17571 2.63895 6.89388 2.84833L7.05509 3.83525ZM15.1202 2.95972C16.4315 2.88453 17.7855 2.8383 19.1746 2.82658L19.1661 1.82661C17.7604 1.83847 16.3901 1.88526 15.063 1.96136L15.1202 2.95972ZM23.2316 2.8918C24.5599 2.94594 25.9113 3.03355 27.28 3.15888L27.3712 2.16304C25.9851 2.03612 24.6169 1.94743 23.2724 1.89263L23.2316 2.8918ZM31.3084 3.63426C32.6317 3.8262 33.9653 4.0557 35.3042 4.32639L35.5024 3.34622C34.1447 3.07173 32.7929 2.8391 31.452 2.64462L31.3084 3.63426ZM39.2509 5.24424C40.546 5.58608 41.8413 5.96941 43.1325 6.39744L43.4471 5.44824C42.1356 5.01346 40.8205 4.62428 39.5062 4.27736L39.2509 5.24424ZM46.9317 7.79554C48.1731 8.29962 49.4064 8.84883 50.6275 9.4461L51.0669 8.54779C49.8243 7.94007 48.57 7.38149 47.3079 6.86901L46.9317 7.79554ZM54.1953 11.3528C55.3497 12.0249 56.4891 12.7447 57.6098 13.515L58.1762 12.6908C57.0345 11.9061 55.8739 11.173 54.6984 10.4886L54.1953 11.3528ZM60.8522 15.9311C61.3744 16.3525 61.8914 16.7862 62.4028 17.2326L63.0604 16.4793C62.5392 16.0243 62.0123 15.5823 61.4802 15.1529L60.8522 15.9311ZM62.4028 17.2326C62.8943 17.6617 63.3869 18.0777 63.8802 18.4809L64.513 17.7066C64.0281 17.3103 63.5439 16.9013 63.0604 16.4793L62.4028 17.2326ZM66.9416 20.8138C68.0148 21.574 69.0904 22.2769 70.1666 22.9253L70.6826 22.0687C69.6278 21.4333 68.5729 20.7439 67.5196 19.9978L66.9416 20.8138ZM73.5459 24.7848C74.7198 25.371 75.8924 25.8957 77.0614 26.3625L77.4323 25.4339C76.2891 24.9773 75.1418 24.4639 73.9927 23.8901L73.5459 24.7848ZM80.7059 27.6392C81.9614 28.0185 83.2099 28.3346 84.4488 28.5921L84.6523 27.613C83.442 27.3615 82.2221 27.0527 80.9952 26.6819L80.7059 27.6392ZM88.2606 29.2086C89.5598 29.3596 90.8446 29.4494 92.1115 29.4838L92.1387 28.4842C90.9006 28.4506 89.6453 28.3628 88.3761 28.2153L88.2606 29.2086ZM95.9712 29.4198C97.2762 29.3414 98.5571 29.2071 99.81 29.024L99.6654 28.0345C98.4398 28.2136 97.1871 28.3449 95.9112 28.4216L95.9712 29.4198ZM103.601 28.3076C104.878 28.0109 106.119 27.6664 107.318 27.2827L107.013 26.3302C105.839 26.7059 104.625 27.0431 103.374 27.3335L103.601 28.3076ZM110.945 25.9569C112.171 25.4508 113.34 24.9076 114.446 24.3389L113.988 23.4497C112.908 24.0057 111.764 24.5371 110.563 25.0325L110.945 25.9569ZM117.801 22.418C118.359 22.0632 118.892 21.704 119.401 21.3426L118.822 20.5274C118.327 20.8787 117.808 21.2284 117.264 21.5743L117.801 22.418ZM118.941 20.4649C118.326 20.6877 117.707 20.8091 117.095 20.8406L117.147 21.8393C117.857 21.8028 118.574 21.6618 119.282 21.4051L118.941 20.4649ZM113.452 19.9616C112.362 19.3578 111.392 18.4715 110.643 17.3854L109.82 17.9529C110.652 19.1604 111.736 20.1543 112.967 20.8363L113.452 19.9616ZM109.201 13.84C108.995 12.6345 109.031 11.3393 109.376 10.0099L108.408 9.75869C108.027 11.2269 107.986 12.6651 108.215 14.0081L109.201 13.84ZM111.025 6.49665C111.381 5.98361 111.792 5.47167 112.26 4.96418L111.526 4.28577C111.027 4.82581 110.587 5.37374 110.204 5.92637L111.025 6.49665ZM112.26 4.96418C112.79 4.38996 113.333 3.91526 113.879 3.53022L113.303 2.71282C112.695 3.14145 112.1 3.6637 111.526 4.28577L112.26 4.96418ZM117.822 2.16441C119.244 2.13503 120.616 2.57966 121.809 3.37103L122.362 2.5378C121.019 1.64674 119.449 1.13057 117.802 1.16463L117.822 2.16441ZM124.639 6.53065C125.294 7.76928 125.668 9.18165 125.656 10.6506L126.656 10.6587C126.669 9.01447 126.251 7.43958 125.523 6.06327L124.639 6.53065ZM124.568 14.7531C124.241 15.3536 123.833 15.9491 123.336 16.5315L124.097 17.1804C124.637 16.5474 125.084 15.8952 125.446 15.2319L124.568 14.7531ZM123.336 16.5315C123.032 16.8884 122.69 17.2553 122.314 17.6288L123.018 18.3387C123.412 17.9475 123.773 17.5604 124.097 17.1804L123.336 16.5315ZM120.039 19.62C119.653 19.9226 119.247 20.2255 118.822 20.5274L119.401 21.3426C119.838 21.032 120.257 20.7198 120.656 20.4075L120.039 19.62ZM119.464 21.2894C119.9 20.8559 120.381 20.3947 120.906 19.9112L120.228 19.1758C119.695 19.6673 119.204 20.1374 118.759 20.5806L119.464 21.2894ZM123.924 17.2924C124.898 16.4922 125.954 15.6642 127.081 14.8257L126.485 14.0233C125.344 14.8714 124.276 15.7093 123.289 16.5196L123.924 17.2924ZM130.353 12.5082C131.433 11.7797 132.56 11.0553 133.727 10.3463L133.207 9.49173C132.026 10.2093 130.886 10.9422 129.794 11.6791L130.353 12.5082ZM137.199 8.35246C138.362 7.72392 139.554 7.11842 140.771 6.54513L140.345 5.64052C139.11 6.22215 137.902 6.83603 136.724 7.4728L137.199 8.35246ZM144.439 4.95091C145.676 4.45911 146.931 4.00719 148.199 3.60374L147.896 2.65079C146.604 3.06184 145.326 3.52179 144.069 4.02166L144.439 4.95091ZM152.045 2.54595C153.344 2.24596 154.652 2.00395 155.962 1.82859L155.829 0.837427C154.486 1.01723 153.148 1.26505 151.82 1.57158L152.045 2.54595ZM159.923 1.51039C160.585 1.49401 161.247 1.49684 161.908 1.52001L161.943 0.52062C161.262 0.496736 160.58 0.493834 159.898 0.5107L159.923 1.51039ZM161.908 1.52001C162.551 1.54255 163.193 1.57482 163.835 1.61607L163.899 0.618131C163.248 0.576277 162.596 0.543514 161.943 0.52062L161.908 1.52001ZM167.68 1.96531C168.957 2.1132 170.234 2.29086 171.511 2.4924L171.667 1.50462C170.378 1.3012 169.087 1.1216 167.795 0.97195L167.68 1.96531ZM175.324 3.15879C176.589 3.39911 177.855 3.65696 179.124 3.92663L179.332 2.94847C178.058 2.67765 176.784 2.41831 175.511 2.17637L175.324 3.15879ZM182.916 4.7595C184.175 5.0432 185.437 5.33263 186.705 5.62254L186.928 4.64771C185.661 4.35799 184.397 4.0681 183.135 3.78395L182.916 4.7595ZM190.499 6.48216C191.762 6.76367 193.03 7.04011 194.305 7.30599L194.509 6.32705C193.24 6.06237 191.976 5.78696 190.717 5.50612L190.499 6.48216ZM198.129 8.0626C199.404 8.29941 200.685 8.52068 201.976 8.72113L202.129 7.73298C200.85 7.53424 199.578 7.31469 198.312 7.07943L198.129 8.0626ZM205.846 9.25164C207.133 9.40314 208.43 9.52941 209.737 9.62542L209.81 8.6281C208.519 8.53326 207.237 8.40843 205.963 8.25849L205.846 9.25164ZM213.643 9.81654C214.937 9.84697 216.242 9.84388 217.557 9.8026L217.526 8.8031C216.23 8.84377 214.943 8.84684 213.667 8.81681L213.643 9.81654ZM221.469 9.56588C222.753 9.44995 224.048 9.29467 225.354 9.09592L225.204 8.10729C223.918 8.30291 222.643 8.45578 221.379 8.56993L221.469 9.56588Z" fill="#AFAFAF"/>
</svg>
