<svg width="409" height="215" viewBox="0 0 409 215" fill="none" xmlns="http://www.w3.org/2000/svg">
<path d="M114.197 81.6935L86.3426 87.1923L114.197 81.6935Z" fill="#2B2B31"/>
<path d="M114.197 81.6935L86.3426 87.1923" stroke="#FF1046" stroke-width="2" stroke-miterlimit="10" stroke-linecap="round"/>
<path d="M85.5659 86.8839L23.3142 59.0449L71.7302 95.1519" fill="#2B2B31"/>
<path d="M85.5659 86.8839L23.3142 59.0449L71.7302 95.1519" stroke="#FF1046" stroke-width="2" stroke-miterlimit="10" stroke-linecap="round"/>
<path d="M115.203 78.889C78.1312 67.4999 40.8451 56.8302 3.34473 46.88L115.203 78.889Z" fill="#2B2B31"/>
<path d="M115.203 78.889C78.1312 67.4999 40.8451 56.8302 3.34473 46.88" stroke="#FF1046" stroke-width="2" stroke-miterlimit="10" stroke-linecap="round"/>
<path d="M71.7818 96.0681C61.2591 95.7245 50.7331 95.7466 40.2035 96.1342L71.7818 96.0681Z" fill="#2B2B31"/>
<path d="M71.7818 96.0681C61.2591 95.7245 50.7331 95.7466 40.2035 96.1342" stroke="#FF1046" stroke-width="2" stroke-miterlimit="10" stroke-linecap="round"/>
<path d="M1 47.09C14.2058 65.1695 28.4406 82.4803 43.6344 98.9372L1 47.09Z" fill="#2B2B31"/>
<path d="M1 47.09C14.2058 65.1695 28.4406 82.4803 43.6344 98.9372" stroke="#FF1046" stroke-width="2" stroke-miterlimit="10" stroke-linecap="round"/>
<path d="M88.3675 89.1378C87.4303 98.7285 87.0735 108.367 87.299 118L88.3675 89.1378Z" fill="#2B2B31"/>
<path d="M88.3675 89.1378C87.4303 98.7285 87.0735 108.367 87.299 118" stroke="#FF1046" stroke-width="2" stroke-miterlimit="10" stroke-linecap="round"/>
<path d="M73.0743 95.2826C77.4543 103.003 81.8348 110.724 86.2158 118.445L73.0743 95.2826Z" fill="#2B2B31"/>
<path d="M73.0743 95.2826C77.4543 103.003 81.8348 110.724 86.2158 118.445" stroke="#FF1046" stroke-width="2" stroke-miterlimit="10" stroke-linecap="round"/>
<path d="M85.6057 118.351C77.2288 110.484 68.5179 102.992 59.4729 95.8743L85.6057 118.351Z" fill="#2B2B31"/>
<path d="M85.6057 118.351C77.2288 110.484 68.5179 102.992 59.4729 95.8743" stroke="#FF1046" stroke-width="2" stroke-miterlimit="10" stroke-linecap="round"/>
<path d="M101.281 103.31C115.675 116.718 112.962 134.542 116.055 150.758C120.96 176.472 145.103 201.956 182.834 210.459C212.973 217.249 247.815 212.117 273.136 199.525C298.457 186.933 314.696 167.663 321.634 147.457C324.582 138.866 325.969 129.943 323.86 121.248C319.06 101.454 296.376 84.9458 269.468 75.1067C263.302 72.6209 256.77 71.1549 250.131 70.7664C243.248 70.5784 235.842 72.5283 232.668 76.5001C229.003 81.0768 232.089 86.9852 237.931 90.4842C243.773 93.9832 251.724 95.5542 259.492 96.6511C301.454 102.59 348.819 96.7318 379.369 77.1476C409.919 57.5634 418.462 23.4283 392.997 1" stroke="#2B2B31" stroke-width="2" stroke-miterlimit="10" stroke-linecap="round" stroke-dasharray="9.74 9.74"/>
</svg>
