<svg width="380" height="193" viewBox="0 0 380 193" fill="none" xmlns="http://www.w3.org/2000/svg">
<path d="M205.174 151.2H191.896V166.697H205.174V151.2Z" fill="#FD6E2E"/>
<path d="M183.313 166.697H213.465C214.624 166.697 215.565 167.637 215.565 168.795V171.888H181.214V168.795C181.214 167.637 182.154 166.697 183.313 166.697Z" fill="#FEC93E"/>
<path d="M227.098 171.888H169.683C168.24 171.888 167.07 173.056 167.07 174.498V188.89C167.07 190.331 168.24 191.5 169.683 191.5H227.098C228.541 191.5 229.711 190.331 229.711 188.89V174.498C229.711 173.056 228.541 171.888 227.098 171.888Z" fill="#AF5117"/>
<path d="M211.786 175.637H186.148C184.858 175.637 183.812 176.682 183.812 177.971V185.993C183.812 187.282 184.858 188.327 186.148 188.327H211.786C213.076 188.327 214.121 187.282 214.121 185.993V177.971C214.121 176.682 213.076 175.637 211.786 175.637Z" fill="#F7A738"/>
<path d="M136.634 75.2627C133.724 75.2627 131.498 77.8548 131.941 80.7294C133.604 91.4999 139.103 115.348 156.017 126.02C156.33 126.219 156.65 126.413 156.97 126.603V75.2627H136.638H136.634ZM142.739 89.9029C141.912 86.8901 144.196 83.9172 147.321 83.9172H155.233V114.202C148.207 106.625 144.494 96.3247 142.736 89.8999L142.739 89.9029Z" fill="#F7A738"/>
<path d="M198.052 59.0161V151.12C184.755 151.864 174.997 147.269 168.185 141.769C163.597 138.065 160.345 133.952 158.245 130.78C157.268 129.306 156.521 127.697 156.017 126.023C155.501 124.315 155.236 122.534 155.236 120.734V59.0161H198.055H198.052Z" fill="#FEC93E"/>
<path d="M259.472 75.2627H239.14V126.603C239.376 126.462 239.613 126.324 239.844 126.173C256.951 115.581 262.496 91.5491 264.165 80.7294C264.608 77.8548 262.379 75.2627 259.472 75.2627ZM253.367 89.9029C251.609 96.3247 247.899 106.625 240.87 114.205V83.9203H248.779C251.907 83.9203 254.191 86.8932 253.364 89.906L253.367 89.9029Z" fill="#F7A738"/>
<path d="M240.873 59.0161V119.475C240.873 121.763 240.523 124.02 239.844 126.176C239.137 128.427 238.067 130.571 236.666 132.506C230.881 140.494 218.759 152.275 198.052 151.12V59.0161H240.87H240.873Z" fill="#FEC93E"/>
<path d="M221.519 93.1459H205.994L198.055 78.4351L190.116 93.1459H174.591C173.552 93.1459 172.996 94.3682 173.678 95.1514L184.995 108.145L181.448 124.057C181.224 125.061 182.281 125.869 183.194 125.393L198.058 117.602L212.922 125.393C213.835 125.872 214.892 125.065 214.668 124.057L211.121 108.145L222.438 95.1514C223.12 94.3682 222.564 93.1459 221.525 93.1459H221.519Z" fill="white"/>
<path style="mix-blend-mode:multiply" opacity="0.61" d="M259.471 75.2626H240.872V59.0161H226.285C223.909 74.3228 217 95.9714 198.054 116.898C190.29 125.47 180.507 133.925 168.188 141.769C174.999 147.269 184.757 151.864 198.054 151.12C218.761 152.275 230.883 140.494 236.668 132.506C238.069 130.568 239.139 128.427 239.846 126.176C256.954 115.584 262.499 91.552 264.167 80.7323C264.61 77.8577 262.382 75.2656 259.474 75.2656L259.471 75.2626ZM253.367 89.9028C251.609 96.3246 247.899 106.625 240.869 114.205V83.9202H248.778C251.907 83.9202 254.19 86.8931 253.364 89.9059L253.367 89.9028Z" fill="url(#paint0_radial_15488_4531)"/>
<path d="M248.665 59.016C248.665 60.3949 248.105 61.6449 247.199 62.5509C246.292 63.4538 245.041 64.0158 243.661 64.0158H152.445C149.685 64.0158 147.444 61.7769 147.444 59.019C147.444 58.4816 147.527 57.9656 147.687 57.4804C147.795 57.1426 147.942 56.8201 148.117 56.516C148.336 56.1352 148.603 55.7882 148.91 55.4811C149.814 54.5751 151.068 54.0161 152.448 54.0161H243.664C245.514 54.0161 247.134 55.0235 247.998 56.516C248.173 56.817 248.321 57.1395 248.428 57.4804C248.588 57.9626 248.671 58.4816 248.671 59.019L248.665 59.016Z" fill="#EA9632"/>
<path d="M247.995 56.516C247.779 56.8969 247.509 57.2439 247.202 57.551C246.295 58.4509 245.044 59.016 243.664 59.016H152.448C150.598 59.016 148.981 58.0117 148.117 56.516C148.335 56.1352 148.603 55.7882 148.91 55.4811C149.814 54.5751 151.068 54.0161 152.448 54.0161H243.664C245.514 54.0161 247.134 55.0235 247.998 56.516H247.995Z" fill="#F7A738"/>
<path d="M294.198 70.577L299.143 66.1084C299.985 65.3468 301.331 65.8812 301.424 67.0114L301.965 73.6543L307.746 76.9742C308.73 77.5393 308.637 78.9858 307.592 79.4219L301.439 81.9894L300.068 88.5095C299.835 89.6182 298.43 89.9775 297.692 89.1176L293.346 84.0625L286.716 84.775C285.588 84.8947 284.811 83.6724 285.401 82.705L288.871 77.0141L286.145 70.9332C285.681 69.8983 286.606 68.7834 287.709 69.0445L294.198 70.5831V70.577Z" fill="#FEC93E"/>
<path d="M208.573 6.32454L213.518 1.856C214.36 1.09435 215.706 1.62873 215.799 2.75892L216.34 9.40185L222.121 12.7218C223.105 13.2869 223.012 14.7334 221.967 15.1695L215.814 17.737L214.443 24.2571C214.21 25.3658 212.805 25.7251 212.067 24.8651L207.721 19.81L201.091 20.5225C199.963 20.6423 199.186 19.42 199.776 18.4526L203.246 12.7617L200.52 6.68079C200.056 5.64581 200.981 4.53098 202.084 4.79203L208.573 6.33068V6.32454Z" fill="#FEC93E"/>
<path d="M253.508 136.263L256.391 130.253C256.883 129.23 258.331 129.215 258.844 130.225L261.865 136.168L268.477 137.049C269.602 137.2 270.066 138.573 269.26 139.374L264.539 144.079L265.741 150.633C265.947 151.748 264.782 152.614 263.771 152.098L257.833 149.064L251.965 152.233C250.966 152.771 249.783 151.932 249.964 150.814L251.015 144.233L246.187 139.635C245.366 138.852 245.796 137.47 246.918 137.295L253.508 136.26V136.263Z" fill="#FEC93E"/>
<path d="M106.178 88.6308L110.247 83.9411C110.939 83.1426 112.248 83.4835 112.46 84.5185L113.711 90.5994L119.434 93.0164C120.408 93.428 120.485 94.7762 119.566 95.2983L114.163 98.3664L113.628 104.552C113.536 105.605 112.279 106.097 111.498 105.384L106.909 101.198L100.857 102.602C99.8275 102.841 98.97 101.797 99.4064 100.836L101.973 95.1816L98.7671 89.8654C98.2231 88.9625 98.9515 87.8231 99.9996 87.9429L106.175 88.6339L106.178 88.6308Z" fill="#FEC93E"/>
<path d="M118.064 33.1181L119.379 26.1803C119.604 25.001 121.082 24.5895 121.884 25.4832L126.596 30.7472L133.604 29.8534C134.797 29.703 135.645 30.9806 135.04 32.0186L131.486 38.121L134.502 44.506C135.015 45.5932 134.059 46.794 132.885 46.5421L125.979 45.0496L120.833 49.8897C119.957 50.7128 118.519 50.1753 118.396 48.9806L117.68 41.9569L111.483 38.5633C110.429 37.9859 110.497 36.4534 111.594 35.9681L118.058 33.1181H118.064Z" fill="#FEC93E"/>
<path d="M78.4329 124.608L80.9963 122.391C81.4327 122.013 82.112 122.299 82.1458 122.876L82.3487 126.261L85.2532 128.011C85.7481 128.309 85.6835 129.043 85.1487 129.255L81.9921 130.493L81.2237 133.794C81.0916 134.356 80.3754 134.522 80.0096 134.077L77.855 131.457L74.4771 131.746C73.9024 131.795 73.5212 131.165 73.8317 130.677L75.6574 127.821L74.3388 124.697C74.1144 124.166 74.597 123.61 75.1564 123.754L78.439 124.608H78.4329Z" fill="#FEC93E"/>
<path d="M76.2826 47.909L78.846 45.6916C79.2825 45.3139 79.9618 45.5995 79.9956 46.1769L80.1984 49.5613L83.103 51.3119C83.5978 51.6098 83.5333 52.3438 82.9985 52.5557L79.8419 53.7934L79.0735 57.0949C78.9413 57.6569 78.2252 57.8227 77.8594 57.3774L75.7048 54.7577L72.3238 55.0464C71.749 55.0955 71.3679 54.466 71.6783 53.9776L73.5041 51.1215L72.1855 47.9981C71.9611 47.4668 72.4437 46.9109 73.0031 47.0552L76.2857 47.909H76.2826Z" fill="#FEC93E"/>
<path d="M106.694 154.3L109.294 152.052C109.737 151.671 110.425 151.96 110.459 152.544L110.665 155.971L113.607 157.746C114.108 158.047 114.043 158.793 113.499 159.005L110.299 160.258L109.519 163.603C109.387 164.171 108.658 164.343 108.286 163.892L106.104 161.238L102.68 161.53C102.096 161.579 101.712 160.94 102.025 160.449L103.876 157.556L102.538 154.392C102.311 153.855 102.8 153.29 103.365 153.437L106.691 154.303L106.694 154.3Z" fill="#FEC93E"/>
<path d="M142.034 145.916L143.749 144.432C144.041 144.181 144.496 144.371 144.518 144.755L144.653 147.018L146.595 148.189C146.924 148.388 146.884 148.88 146.525 149.021L144.413 149.85L143.897 152.058C143.811 152.433 143.328 152.546 143.082 152.249L141.641 150.498L139.382 150.692C138.997 150.725 138.742 150.301 138.948 149.979L140.168 148.069L139.286 145.98C139.136 145.624 139.458 145.252 139.833 145.351L142.028 145.922L142.034 145.916Z" fill="#FEC93E"/>
<path d="M295.765 170.319L292.119 169.813C291.498 169.727 291.246 168.968 291.692 168.529L294.314 165.946L293.671 162.325C293.561 161.708 294.206 161.235 294.763 161.523L298.03 163.216L301.279 161.487C301.832 161.192 302.48 161.659 302.379 162.276L301.777 165.906L304.426 168.458C304.878 168.891 304.635 169.656 304.014 169.748L300.375 170.298L298.764 173.605C298.491 174.167 297.689 174.174 297.409 173.615L295.761 170.325L295.765 170.319Z" fill="#FEC93E"/>
<path d="M299.874 114.209L299.705 116.807C299.677 117.25 299.152 117.468 298.82 117.176L296.859 115.459L294.332 116.101C293.902 116.212 293.533 115.779 293.708 115.373L294.735 112.978L293.343 110.776C293.106 110.401 293.401 109.919 293.844 109.959L296.441 110.195L298.107 108.193C298.39 107.852 298.943 107.984 299.041 108.417L299.619 110.957L302.041 111.921C302.453 112.084 302.499 112.649 302.118 112.876L299.88 114.209H299.874Z" fill="#FEC93E"/>
<path d="M162.189 9.99188L162.019 12.5901C161.992 13.0323 161.466 13.2504 161.134 12.9586L159.173 11.2418L156.647 11.8837C156.217 11.9943 155.848 11.5612 156.023 11.1559L157.049 8.76034L155.657 6.55832C155.42 6.18364 155.715 5.70147 156.158 5.74139L158.755 5.97787L160.421 3.97548C160.704 3.63458 161.257 3.76664 161.356 4.19967L161.933 6.73952L164.355 7.70387C164.767 7.86664 164.813 8.43173 164.432 8.659L162.195 9.99188H162.189Z" fill="#FEC93E"/>
<path d="M270.512 41.4748L270.343 44.073C270.315 44.5152 269.789 44.7333 269.458 44.4415L267.497 42.7248L264.97 43.3666C264.54 43.4772 264.171 43.0442 264.346 42.6388L265.373 40.2433L263.98 38.0412C263.744 37.6666 264.039 37.1844 264.481 37.2243L267.079 37.4608L268.744 35.4584C269.027 35.1175 269.58 35.2495 269.679 35.6826L270.257 38.2224L272.679 39.1868C273.091 39.3495 273.137 39.9146 272.756 40.1419L270.518 41.4748H270.512Z" fill="#FEC93E"/>
<defs>
<radialGradient id="paint0_radial_15488_4531" cx="0" cy="0" r="1" gradientUnits="userSpaceOnUse" gradientTransform="translate(183.525 130.064) scale(137.379 137.269)">
<stop stop-color="white"/>
<stop offset="0.34" stop-color="#EBECED"/>
<stop offset="1" stop-color="#BCBEC0"/>
</radialGradient>
</defs>
</svg>
