<svg width="350" height="70" viewBox="0 0 350 70" fill="none" xmlns="http://www.w3.org/2000/svg">
<g clip-path="url(#clip0_319_5)">
<path d="M27.1818 8.12626L27.9758 10.5777L10.8282 15.8847L16.4067 33.0607L13.9582 33.8174L7.58784 14.208L27.1818 8.12626Z" fill="white"/>
</g>
<path d="M26.8983 24.4955C26.5812 24.4955 26.273 24.6946 26.1115 25.0501C25.8721 25.5657 26.0307 26.2164 26.4675 26.4973C27.3441 27.0697 28.2236 27.6351 29.1062 28.1968C29.543 28.4742 30.0875 28.2786 30.3208 27.7595C30.5542 27.2404 30.3896 26.5933 29.9528 26.3159C29.0763 25.7577 28.2027 25.1959 27.3321 24.627C27.1945 24.5381 27.0449 24.4955 26.8983 24.4955Z" fill="white"/>
<path d="M341.774 7.22942C341.597 7.22942 341.421 7.28986 341.265 7.41787C339.62 8.76544 337.926 10.1166 336.236 11.4357C335.82 11.7593 335.706 12.4206 335.979 12.9113C336.251 13.4055 336.807 13.5406 337.22 13.2206C338.923 11.8944 340.625 10.5361 342.285 9.17789C342.692 8.84366 342.797 8.17876 342.516 7.6952C342.339 7.39297 342.061 7.22942 341.774 7.22942ZM331.602 15.1513C331.44 15.1513 331.276 15.2046 331.129 15.3113C329.427 16.57 327.683 17.8287 325.947 19.0518C325.52 19.3505 325.379 20.0047 325.633 20.5131C325.885 21.0216 326.435 21.1887 326.863 20.8865C328.61 19.6562 330.366 18.3904 332.077 17.1211C332.499 16.8082 332.628 16.1504 332.365 15.6526C332.194 15.3291 331.901 15.1513 331.602 15.1513ZM321.137 22.5185C320.987 22.5185 320.838 22.5612 320.697 22.6572C318.947 23.827 317.158 24.9932 315.381 26.1203C314.944 26.3977 314.779 27.0448 315.013 27.5639C315.246 28.083 315.791 28.2786 316.227 28.0012C318.016 26.867 319.817 25.6937 321.577 24.5168C322.007 24.2287 322.163 23.5781 321.918 23.0625C321.756 22.7141 321.451 22.5185 321.137 22.5185ZM310.408 29.3275C310.271 29.3275 310.133 29.363 310.005 29.4413C308.216 30.5186 306.385 31.5924 304.569 32.6271C304.123 32.8831 303.934 33.5195 304.147 34.0493C304.362 34.5791 304.898 34.8031 305.343 34.5507C307.171 33.5053 309.014 32.428 310.815 31.3435C311.258 31.0768 311.435 30.4368 311.21 29.9106C311.052 29.5408 310.738 29.3275 310.408 29.3275ZM34.9192 29.523C34.5901 29.523 34.2759 29.7364 34.1174 30.1062C33.893 30.6324 34.0695 31.2724 34.5123 31.5391C36.3133 32.6235 38.1502 33.7009 39.9752 34.7391C40.4209 34.9951 40.9594 34.7711 41.1719 34.2378C41.3873 33.708 41.1988 33.068 40.75 32.8155C38.937 31.7808 37.1091 30.7106 35.3231 29.6368C35.1914 29.5621 35.0538 29.523 34.9192 29.523ZM299.447 35.5818C299.321 35.5818 299.196 35.6138 299.076 35.6778C297.248 36.6662 295.381 37.644 293.532 38.5898C293.077 38.8209 292.865 39.4503 293.062 39.9907C293.257 40.5312 293.786 40.7836 294.241 40.549C296.102 39.5996 297.981 38.6112 299.821 37.6191C300.273 37.3738 300.473 36.7445 300.267 36.2076C300.114 35.8164 299.788 35.5818 299.447 35.5818ZM45.8659 35.7631C45.5248 35.7631 45.1987 35.9978 45.0491 36.3889C44.8457 36.9258 45.0461 37.5587 45.4949 37.8005C47.3318 38.7889 49.2076 39.7703 51.0685 40.7196C51.5232 40.9507 52.0527 40.7018 52.2472 40.1578C52.4417 39.6174 52.2322 38.988 51.7745 38.7569C49.9256 37.8147 48.0618 36.8405 46.2368 35.8591C46.1142 35.7916 45.9885 35.7631 45.8659 35.7631ZM288.273 41.2885C288.159 41.2885 288.045 41.3134 287.935 41.3667C286.074 42.2628 284.174 43.1517 282.292 44.005C281.829 44.2148 281.598 44.8299 281.775 45.381C281.951 45.9321 282.469 46.2059 282.933 45.9961C284.826 45.1357 286.735 44.2432 288.608 43.3437C289.069 43.1232 289.29 42.501 289.101 41.9534C288.964 41.5374 288.629 41.2885 288.273 41.2885ZM57.028 41.4379C56.6719 41.4379 56.3369 41.6903 56.1963 42.1063C56.0108 42.6539 56.2322 43.2725 56.6929 43.493C58.5627 44.389 60.4714 45.2779 62.3652 46.1313C62.8289 46.341 63.3465 46.0637 63.523 45.5126C63.6995 44.9615 63.4661 44.3463 63.0024 44.1366C61.1206 43.2903 59.2239 42.4085 57.366 41.5161C57.2523 41.4627 57.1387 41.4379 57.028 41.4379ZM276.913 46.4406C276.811 46.4406 276.71 46.4619 276.611 46.5046C274.72 47.3117 272.794 48.1046 270.885 48.8691C270.415 49.0575 270.164 49.662 270.319 50.2202C270.478 50.7784 270.987 51.0806 271.456 50.8922C273.377 50.1242 275.313 49.3242 277.215 48.5135C277.682 48.3144 277.924 47.7028 277.757 47.1482C277.625 46.7144 277.281 46.4406 276.913 46.4406ZM68.3815 46.5579C68.0135 46.5579 67.6665 46.8317 67.5349 47.2655C67.3673 47.8202 67.6127 48.4317 68.0794 48.6273C69.9791 49.4308 71.9177 50.2237 73.8384 50.9846C74.3111 51.1695 74.8167 50.8673 74.9723 50.3091C75.1279 49.7509 74.8736 49.1464 74.4039 48.958C72.4951 48.2006 70.5685 47.4148 68.6807 46.6148C68.582 46.5757 68.4803 46.5579 68.3815 46.5579ZM265.386 51.0486C265.296 51.0486 265.207 51.0629 265.117 51.0984C263.199 51.8131 261.249 52.5171 259.316 53.1891C258.84 53.3527 258.568 53.9465 258.706 54.5118C258.843 55.0771 259.343 55.4007 259.819 55.2371C261.76 54.5616 263.726 53.854 265.652 53.1358C266.125 52.958 266.388 52.3607 266.239 51.7989C266.122 51.3402 265.769 51.0486 265.386 51.0486ZM79.8996 51.1233C79.5167 51.1233 79.1637 51.4149 79.044 51.8735C78.8974 52.4353 79.1607 53.0327 79.6334 53.2105C81.56 53.9216 83.5226 54.622 85.4672 55.294C85.9429 55.4576 86.4395 55.1305 86.5801 54.5651C86.7178 53.9998 86.4425 53.406 85.9668 53.2425C84.0342 52.5776 82.0836 51.8807 80.1689 51.1731C80.0791 51.1375 79.9894 51.1233 79.8996 51.1233ZM253.718 55.102C253.641 55.102 253.563 55.1127 253.482 55.1411C251.546 55.7634 249.572 56.3749 247.615 56.9581C247.134 57.1003 246.843 57.6798 246.963 58.2523C247.083 58.8247 247.57 59.1732 248.052 59.0274C250.021 58.4443 252.004 57.8292 253.952 57.1998C254.43 57.0469 254.712 56.4603 254.583 55.8914C254.475 55.4149 254.113 55.102 253.718 55.102ZM91.5643 55.1376C91.1694 55.1376 90.8045 55.4505 90.6968 55.9269C90.5681 56.4958 90.8523 57.0825 91.331 57.2318C93.2786 57.8541 95.2651 58.4621 97.2277 59.0381C97.7093 59.1803 98.197 58.8319 98.3137 58.2594C98.4333 57.687 98.1401 57.1109 97.6585 56.9687C95.7049 56.3927 93.7333 55.7918 91.7947 55.1731C91.7199 55.1483 91.6421 55.1376 91.5643 55.1376ZM103.355 58.6043C102.945 58.6043 102.574 58.9385 102.481 59.4363C102.37 60.0123 102.676 60.5812 103.157 60.7128C105.129 61.2461 107.133 61.7581 109.111 62.2452C109.595 62.3626 110.071 61.9928 110.17 61.4168C110.269 60.8408 109.957 60.2754 109.473 60.1581C107.507 59.6745 105.515 59.1625 103.555 58.6363C103.486 58.6114 103.421 58.6043 103.355 58.6043ZM241.925 58.6043C241.859 58.6043 241.79 58.6114 241.725 58.6327C239.768 59.1661 237.776 59.6852 235.804 60.1723C235.319 60.2932 235.008 60.8585 235.11 61.4346C235.212 62.0106 235.687 62.3839 236.172 62.2595C238.156 61.7688 240.16 61.2461 242.126 60.7092C242.61 60.5777 242.909 60.0052 242.799 59.4328C242.703 58.9421 242.332 58.6043 241.925 58.6043ZM115.247 61.5234C114.822 61.5234 114.445 61.8826 114.364 62.3946C114.274 62.9741 114.595 63.5324 115.082 63.639C117.075 64.0799 119.091 64.503 121.081 64.8977C121.568 64.9902 122.032 64.6026 122.113 64.0195C122.194 63.4399 121.864 62.8888 121.374 62.7928C119.396 62.4017 117.392 61.9821 115.411 61.5412C115.357 61.527 115.304 61.5234 115.247 61.5234ZM230.024 61.5554C229.97 61.5554 229.913 61.5626 229.856 61.5732C227.888 62.0141 225.88 62.4372 223.891 62.8355C223.403 62.9315 223.071 63.4826 223.155 64.0657C223.239 64.6453 223.703 65.0399 224.19 64.9404C226.192 64.5422 228.211 64.1119 230.192 63.671C230.679 63.5608 230.999 63.0026 230.907 62.4266C230.823 61.911 230.449 61.5554 230.024 61.5554ZM127.229 63.895C126.792 63.895 126.406 64.2755 126.343 64.8053C126.271 65.3884 126.609 65.9288 127.1 66.0142C129.101 66.3626 131.133 66.6933 133.134 66.9991C133.628 67.0737 134.077 66.6613 134.136 66.0746C134.199 65.4915 133.852 64.9546 133.359 64.8835C131.369 64.5813 129.35 64.2541 127.357 63.9057C127.318 63.8986 127.273 63.895 127.229 63.895ZM218.036 63.9484C217.991 63.9484 217.949 63.9519 217.905 63.959C215.918 64.3075 213.899 64.6382 211.9 64.9439C211.41 65.0186 211.06 65.5519 211.122 66.1386C211.185 66.7217 211.637 67.1377 212.128 67.0631C214.138 66.7573 216.169 66.4266 218.165 66.0746C218.655 65.9893 218.994 65.4453 218.922 64.8622C218.859 64.3288 218.476 63.9484 218.036 63.9484ZM139.279 65.7191C138.828 65.7191 138.439 66.1244 138.388 66.672C138.334 67.2586 138.69 67.7849 139.184 67.8453C141.191 68.1013 143.231 68.3395 145.245 68.5529C145.735 68.6026 146.175 68.1724 146.217 67.5857C146.262 66.9991 145.897 66.48 145.403 66.4302C143.399 66.2204 141.37 65.9822 139.375 65.7262C139.345 65.7191 139.312 65.7191 139.279 65.7191ZM205.983 65.7795C205.95 65.7795 205.917 65.7831 205.884 65.7866C203.888 66.0426 201.857 66.2773 199.853 66.4871C199.359 66.5368 198.994 67.056 199.036 67.6426C199.078 68.2293 199.511 68.6631 200.008 68.6133C202.025 68.4035 204.065 68.1653 206.072 67.9093C206.566 67.8453 206.922 67.3191 206.868 66.736C206.823 66.1848 206.434 65.7795 205.983 65.7795ZM151.381 66.9884C150.914 66.9884 150.519 67.4186 150.486 67.9804C150.453 68.5671 150.824 69.0791 151.321 69.1182C153.337 69.2853 155.384 69.4275 157.403 69.5484C157.9 69.584 158.319 69.1253 158.345 68.5351C158.369 67.9484 157.989 67.4471 157.493 67.4151C155.482 67.3013 153.448 67.1555 151.444 66.992C151.423 66.992 151.402 66.9884 151.381 66.9884ZM193.875 67.0417C193.854 67.0417 193.833 67.0417 193.812 67.0453C193.157 67.0986 192.499 67.1484 191.844 67.1982C190.488 67.2977 189.115 67.3866 187.766 67.4613C187.269 67.4897 186.889 67.9875 186.913 68.5778C186.937 69.1644 187.353 69.6231 187.853 69.5911C189.211 69.5129 190.593 69.424 191.954 69.3244C192.616 69.2747 193.277 69.2249 193.935 69.1715C194.429 69.1324 194.803 68.624 194.77 68.0338C194.737 67.4755 194.342 67.0417 193.875 67.0417ZM163.515 67.7066C163.033 67.7066 162.633 68.1618 162.618 68.7413C162.603 69.3315 162.992 69.8222 163.488 69.84C165.505 69.9147 167.554 69.9644 169.579 69.9893C170.076 70 170.48 69.5235 170.486 68.9333C170.492 68.3431 170.094 67.8631 169.597 67.856C167.584 67.8311 165.547 67.7777 163.542 67.7066C163.533 67.7066 163.524 67.7066 163.515 67.7066ZM181.738 67.7351C181.729 67.7351 181.72 67.7351 181.711 67.7351C179.709 67.8026 177.672 67.8453 175.656 67.8666C175.159 67.8702 174.761 68.3538 174.767 68.944C174.77 69.5307 175.171 70 175.665 70C175.668 70 175.671 70 175.673 70C177.702 69.9787 179.751 69.936 181.765 69.8684C182.261 69.8507 182.65 69.36 182.635 68.7733C182.62 68.1938 182.222 67.7351 181.738 67.7351Z" fill="white"/>
<path d="M349.104 0.999948C348.918 0.999948 348.73 1.0675 348.568 1.20973C347.772 1.91374 346.97 2.61063 346.163 3.30398C345.762 3.64887 345.672 4.31732 345.962 4.79377C346.252 5.27023 346.815 5.37689 347.216 5.032C348.027 4.3351 348.834 3.63109 349.636 2.92353C350.034 2.57153 350.118 1.90307 349.822 1.43017C349.648 1.14928 349.379 0.999948 349.104 0.999948Z" fill="white"/>
<defs>
<clipPath id="clip0_319_5">
<rect width="18.6266" height="28.3448" fill="white" transform="translate(15.0923 34.7173) rotate(-141.569)"/>
</clipPath>
</defs>
</svg>
