<svg width="346" height="64" viewBox="0 0 346 64" fill="none" xmlns="http://www.w3.org/2000/svg">
<path d="M22.8983 41.5477C22.5812 41.5477 22.273 41.3659 22.1115 41.0413C21.8721 40.5705 22.0307 39.9764 22.4675 39.72C23.3441 39.1973 24.2236 38.6811 25.1062 38.1682C25.543 37.915 26.0875 38.0935 26.3208 38.5675C26.5542 39.0415 26.3896 39.6323 25.9528 39.8855C25.0763 40.3952 24.2027 40.9082 23.3321 41.4276C23.1945 41.5087 23.0449 41.5477 22.8983 41.5477Z" fill="white"/>
<path d="M337.774 57.3123C337.597 57.3123 337.421 57.2571 337.265 57.1402C335.62 55.9098 333.926 54.6762 332.236 53.4718C331.82 53.1763 331.706 52.5725 331.979 52.1245C332.251 51.6732 332.807 51.5499 333.22 51.8421C334.923 53.053 336.625 54.2931 338.285 55.5332C338.692 55.8384 338.797 56.4455 338.516 56.887C338.339 57.1629 338.061 57.3123 337.774 57.3123ZM327.602 50.0793C327.44 50.0793 327.276 50.0306 327.129 49.9332C325.427 48.7839 323.683 47.6347 321.947 46.5179C321.52 46.2452 321.379 45.6479 321.633 45.1837C321.885 44.7194 322.435 44.5668 322.863 44.8428C324.61 45.966 326.366 47.1218 328.077 48.2807C328.499 48.5664 328.628 49.167 328.365 49.6215C328.194 49.9169 327.901 50.0793 327.602 50.0793ZM317.137 43.3527C316.987 43.3527 316.838 43.3137 316.697 43.2261C314.947 42.158 313.158 41.0932 311.381 40.0641C310.944 39.8108 310.779 39.22 311.013 38.746C311.246 38.272 311.791 38.0935 312.227 38.3467C314.016 39.3823 315.817 40.4536 317.577 41.5282C318.007 41.7911 318.163 42.3852 317.918 42.856C317.756 43.1741 317.451 43.3527 317.137 43.3527ZM306.408 37.1358C306.271 37.1358 306.133 37.1033 306.005 37.0319C304.216 36.0482 302.385 35.0678 300.569 34.1231C300.123 33.8894 299.934 33.3083 300.147 32.8245C300.362 32.3408 300.898 32.1363 301.343 32.3668C303.171 33.3212 305.014 34.3049 306.815 35.2951C307.258 35.5385 307.435 36.1229 307.21 36.6034C307.052 36.941 306.738 37.1358 306.408 37.1358ZM30.9192 36.9572C30.5901 36.9572 30.2759 36.7624 30.1174 36.4248C29.893 35.9443 30.0695 35.36 30.5123 35.1165C32.3133 34.1264 34.1502 33.1427 35.9752 32.1947C36.4209 31.961 36.9594 32.1655 37.1719 32.6525C37.3873 33.1362 37.1988 33.7206 36.75 33.951C34.937 34.8958 33.1091 35.8729 31.3231 36.8533C31.1914 36.9215 31.0538 36.9572 30.9192 36.9572ZM295.447 31.4253C295.321 31.4253 295.196 31.3961 295.076 31.3377C293.248 30.4352 291.381 29.5424 289.532 28.6789C289.077 28.4678 288.865 27.8932 289.062 27.3998C289.257 26.9063 289.786 26.6758 290.241 26.8901C292.102 27.7569 293.981 28.6594 295.821 29.5651C296.273 29.7891 296.473 30.3638 296.267 30.854C296.114 31.2111 295.788 31.4253 295.447 31.4253ZM41.8659 31.2598C41.5248 31.2598 41.1987 31.0455 41.0491 30.6884C40.8457 30.1982 41.0461 29.6203 41.4949 29.3996C43.3318 28.4971 45.2076 27.601 47.0685 26.7343C47.5232 26.5232 48.0527 26.7505 48.2472 27.2472C48.4417 27.7406 48.2322 28.3153 47.7745 28.5263C45.9256 29.3866 44.0618 30.2761 42.2368 31.1721C42.1142 31.2338 41.9885 31.2598 41.8659 31.2598ZM284.273 26.2148C284.159 26.2148 284.045 26.1921 283.935 26.1434C282.074 25.3253 280.174 24.5137 278.292 23.7346C277.829 23.543 277.598 22.9814 277.775 22.4782C277.951 21.975 278.469 21.725 278.933 21.9166C280.826 22.7022 282.735 23.5171 284.608 24.3384C285.069 24.5397 285.29 25.1078 285.101 25.6077C284.964 25.9876 284.629 26.2148 284.273 26.2148ZM53.028 26.0785C52.6719 26.0785 52.3369 25.848 52.1963 25.4682C52.0108 24.9682 52.2322 24.4033 52.6929 24.2021C54.5627 23.384 56.4714 22.5723 58.3652 21.7932C58.8289 21.6017 59.3465 21.8549 59.523 22.3581C59.6995 22.8613 59.4661 23.4229 59.0024 23.6144C57.1206 24.3871 55.2239 25.1922 53.366 26.0071C53.2523 26.0558 53.1387 26.0785 53.028 26.0785ZM272.913 21.5108C272.811 21.5108 272.71 21.4913 272.611 21.4523C270.72 20.7154 268.794 19.9914 266.885 19.2935C266.415 19.1214 266.164 18.5695 266.319 18.0598C266.478 17.5501 266.987 17.2742 267.456 17.4463C269.377 18.1475 271.313 18.8779 273.215 19.6181C273.682 19.7999 273.924 20.3583 273.757 20.8647C273.625 21.2608 273.281 21.5108 272.913 21.5108ZM64.3815 21.4036C64.0135 21.4036 63.6665 21.1537 63.5349 20.7576C63.3673 20.2512 63.6127 19.6928 64.0794 19.5142C65.9791 18.7805 67.9177 18.0566 69.8384 17.3618C70.3111 17.193 70.8167 17.469 70.9723 17.9787C71.1279 18.4884 70.8736 19.0402 70.4039 19.2123C68.4951 19.9038 66.5685 20.6213 64.6807 21.3517C64.582 21.3874 64.4803 21.4036 64.3815 21.4036ZM261.386 17.3034C261.296 17.3034 261.207 17.2904 261.117 17.258C259.199 16.6054 257.249 15.9626 255.316 15.3491C254.84 15.1997 254.568 14.6576 254.706 14.1414C254.843 13.6252 255.343 13.3298 255.819 13.4791C257.76 14.0959 259.726 14.742 261.652 15.3978C262.125 15.5601 262.388 16.1055 262.239 16.6184C262.122 17.0372 261.769 17.3034 261.386 17.3034ZM75.8996 17.2352C75.5167 17.2352 75.1637 16.969 75.044 16.5502C74.8974 16.0373 75.1607 15.4919 75.6334 15.3296C77.56 14.6803 79.5226 14.0408 81.4672 13.4272C81.9429 13.2779 82.4395 13.5765 82.5801 14.0927C82.7178 14.6089 82.4425 15.151 81.9668 15.3004C80.0342 15.9075 78.0836 16.5437 76.1689 17.1898C76.0791 17.2222 75.9894 17.2352 75.8996 17.2352ZM249.718 13.6025C249.641 13.6025 249.563 13.5928 249.482 13.5668C247.546 12.9987 245.572 12.4403 243.615 11.9079C243.134 11.778 242.843 11.2488 242.963 10.7262C243.083 10.2035 243.57 9.88534 244.052 10.0184C246.021 10.5509 248.004 11.1125 249.952 11.6871C250.43 11.8267 250.712 12.3624 250.583 12.8818C250.475 13.3168 250.113 13.6025 249.718 13.6025ZM87.5643 13.57C87.1694 13.57 86.8045 13.2843 86.6968 12.8493C86.5681 12.3299 86.8523 11.7942 87.331 11.6579C89.2786 11.0898 91.2651 10.5346 93.2277 10.0087C93.7093 9.87885 94.197 10.197 94.3137 10.7197C94.4333 11.2423 94.1401 11.7683 93.6585 11.8981C91.7049 12.424 89.7333 12.9727 87.7947 13.5376C87.7199 13.5603 87.6421 13.57 87.5643 13.57ZM99.3547 10.4048C98.9448 10.4048 98.5739 10.0996 98.4811 9.64511C98.3704 9.11919 98.6756 8.59976 99.1572 8.47965C101.129 7.99268 103.133 7.5252 105.111 7.08044C105.595 6.97331 106.071 7.31093 106.17 7.83685C106.269 8.36277 105.957 8.87895 105.473 8.98609C103.507 9.4276 101.515 9.89508 99.5552 10.3756C99.4863 10.3983 99.4205 10.4048 99.3547 10.4048ZM237.925 10.4048C237.859 10.4048 237.79 10.3983 237.725 10.3788C235.768 9.89184 233.776 9.41786 231.804 8.9731C231.319 8.86272 231.008 8.34654 231.11 7.82062C231.212 7.2947 231.687 6.95383 232.172 7.06745C234.156 7.51546 236.16 7.99268 238.126 8.48289C238.61 8.60301 238.909 9.12568 238.799 9.64836C238.703 10.0964 238.332 10.4048 237.925 10.4048ZM111.247 7.73946C110.822 7.73946 110.445 7.41157 110.364 6.94409C110.274 6.41492 110.595 5.90524 111.082 5.80784C113.075 5.40529 115.091 5.01896 117.081 4.65861C117.568 4.5742 118.032 4.92806 118.113 5.46048C118.194 5.98964 117.864 6.49284 117.374 6.58049C115.396 6.9376 113.392 7.32067 111.411 7.72323C111.357 7.73622 111.304 7.73946 111.247 7.73946ZM226.024 7.71024C225.97 7.71024 225.913 7.70375 225.856 7.69401C223.888 7.29146 221.88 6.90513 219.891 6.54153C219.403 6.45388 219.071 5.95069 219.155 5.41827C219.239 4.88911 219.703 4.52875 220.19 4.61965C222.192 4.98325 224.211 5.37607 226.192 5.77862C226.679 5.87926 226.999 6.38895 226.907 6.91487C226.823 7.3856 226.449 7.71024 226.024 7.71024ZM123.229 5.5741C122.792 5.5741 122.406 5.22673 122.343 4.74302C122.271 4.2106 122.609 3.71715 123.1 3.63924C125.101 3.32109 127.133 3.01917 129.134 2.73998C129.628 2.6718 130.077 3.04839 130.136 3.58405C130.199 4.11646 129.852 4.60667 129.359 4.6716C127.369 4.94754 125.35 5.24621 123.357 5.56436C123.318 5.57085 123.273 5.5741 123.229 5.5741ZM214.036 5.5254C213.991 5.5254 213.949 5.52216 213.905 5.51567C211.918 5.19752 209.899 4.8956 207.9 4.61641C207.41 4.54823 207.06 4.06127 207.122 3.52561C207.185 2.9932 207.637 2.61337 208.128 2.68154C210.138 2.96073 212.169 3.26265 214.165 3.58405C214.655 3.66196 214.994 4.15866 214.922 4.69107C214.859 5.17804 214.476 5.5254 214.036 5.5254ZM135.279 3.90869C134.828 3.90869 134.439 3.5386 134.388 3.03865C134.334 2.50299 134.69 2.02252 135.184 1.96733C137.191 1.73359 139.231 1.51608 141.245 1.32129C141.735 1.27584 142.175 1.66866 142.217 2.20432C142.262 2.73998 141.897 3.21395 141.403 3.2594C139.399 3.45094 137.37 3.66845 135.375 3.9022C135.345 3.90869 135.312 3.90869 135.279 3.90869ZM201.983 3.8535C201.95 3.8535 201.917 3.85025 201.884 3.84701C199.888 3.61326 197.857 3.399 195.853 3.20746C195.359 3.16201 194.994 2.68803 195.036 2.15238C195.078 1.61672 195.511 1.22065 196.008 1.2661C198.025 1.45764 200.065 1.67515 202.072 1.90889C202.566 1.96733 202.922 2.4478 202.868 2.98021C202.823 3.48341 202.434 3.8535 201.983 3.8535ZM147.381 2.74972C146.914 2.74972 146.519 2.3569 146.486 1.84397C146.453 1.30831 146.824 0.840822 147.321 0.805112C149.337 0.65253 151.384 0.522673 153.403 0.412295C153.9 0.379831 154.319 0.798619 154.345 1.33752C154.369 1.87318 153.989 2.33093 153.493 2.36015C151.482 2.46403 149.448 2.59713 147.444 2.74647C147.423 2.74647 147.402 2.74972 147.381 2.74972ZM189.875 2.70102C189.854 2.70102 189.833 2.70102 189.812 2.69777C189.157 2.64908 188.499 2.60363 187.844 2.55818C186.488 2.46728 185.115 2.38612 183.766 2.31794C183.269 2.29197 182.889 1.83747 182.913 1.29857C182.937 0.762908 183.353 0.34412 183.853 0.373338C185.211 0.444759 186.593 0.52592 187.954 0.61682C188.616 0.662269 189.277 0.707719 189.935 0.756415C190.429 0.792126 190.803 1.25636 190.77 1.79527C190.737 2.30496 190.342 2.70102 189.875 2.70102ZM159.515 2.09394C159.033 2.09394 158.633 1.6784 158.618 1.14923C158.603 0.610327 158.992 0.162321 159.488 0.146089C161.505 0.077914 163.554 0.0324642 165.579 0.00973926C166.076 0 166.48 0.43502 166.486 0.973926C166.492 1.51283 166.094 1.9511 165.597 1.95759C163.584 1.98032 161.547 2.02901 159.542 2.09394C159.533 2.09394 159.524 2.09394 159.515 2.09394ZM177.738 2.06797C177.729 2.06797 177.72 2.06797 177.711 2.06797C175.709 2.00629 173.672 1.96733 171.656 1.94785C171.159 1.9446 170.761 1.50309 170.767 0.964186C170.77 0.428527 171.171 0 171.665 0C171.668 0 171.671 0 171.673 0C173.702 0.0194785 175.751 0.0584355 177.765 0.120117C178.261 0.13635 178.65 0.584355 178.635 1.12001C178.62 1.64918 178.222 2.06797 177.738 2.06797Z" fill="white"/>
<path d="M345.104 63C344.918 63 344.73 62.9383 344.568 62.8085C343.772 62.1657 342.97 61.5294 342.163 60.8963C341.762 60.5814 341.672 59.9711 341.962 59.5361C342.252 59.1011 342.815 59.0037 343.216 59.3186C344.027 59.9549 344.834 60.5977 345.636 61.2437C346.034 61.5651 346.118 62.1754 345.822 62.6072C345.648 62.8637 345.379 63 345.104 63Z" fill="white"/>
<g clip-path="url(#clip0_319_6)">
<path d="M10.237 33.2878L12.8004 33.5507L10.735 51.3816L28.7014 53.2101L28.4055 55.7557L7.89309 53.6696L10.237 33.2878Z" fill="white"/>
</g>
<defs>
<clipPath id="clip0_319_6">
<rect width="18.6266" height="28.3448" fill="white" transform="translate(29.6865 55.0813) rotate(152.235)"/>
</clipPath>
</defs>
</svg>
