<svg width="342" height="80" viewBox="0 0 342 80" fill="none" xmlns="http://www.w3.org/2000/svg">
<path d="M0.898292 38.4523C0.58117 38.4523 0.273023 38.6341 0.11147 38.9587C-0.127867 39.4295 0.030694 40.0236 0.467485 40.28C1.34406 40.8027 2.22362 41.3189 3.10618 41.8318C3.54297 42.085 4.08746 41.9065 4.32082 41.4325C4.55417 40.9585 4.38963 40.3677 3.95284 40.1145C3.07626 39.6048 2.20268 39.0918 1.33209 38.5724C1.19447 38.4913 1.04489 38.4523 0.898292 38.4523Z" fill="white"/>
<path d="M315.774 22.6877C315.597 22.6877 315.421 22.7429 315.265 22.8598C313.62 24.0902 311.926 25.3238 310.236 26.5282C309.82 26.8237 309.706 27.4275 309.979 27.8755C310.251 28.3268 310.807 28.4501 311.22 28.1579C312.923 26.947 314.625 25.7069 316.285 24.4668C316.692 24.1616 316.797 23.5545 316.516 23.113C316.339 22.8371 316.061 22.6877 315.774 22.6877ZM305.602 29.9207C305.44 29.9207 305.276 29.9694 305.129 30.0668C303.427 31.2161 301.683 32.3653 299.947 33.4821C299.52 33.7548 299.379 34.3521 299.633 34.8163C299.885 35.2806 300.435 35.4332 300.863 35.1572C302.61 34.034 304.366 32.8782 306.077 31.7193C306.499 31.4336 306.628 30.833 306.365 30.3785C306.194 30.0831 305.901 29.9207 305.602 29.9207ZM295.137 36.6473C294.987 36.6473 294.838 36.6863 294.697 36.7739C292.947 37.842 291.158 38.9068 289.381 39.9359C288.944 40.1892 288.779 40.78 289.013 41.254C289.246 41.728 289.791 41.9065 290.227 41.6533C292.016 40.6177 293.817 39.5464 295.577 38.4718C296.007 38.2089 296.163 37.6148 295.918 37.144C295.756 36.8259 295.451 36.6473 295.137 36.6473ZM284.408 42.8642C284.271 42.8642 284.133 42.8967 284.005 42.9681C282.216 43.9518 280.385 44.9322 278.569 45.8769C278.123 46.1106 277.934 46.6917 278.147 47.1755C278.362 47.6592 278.898 47.8637 279.343 47.6332C281.171 46.6788 283.014 45.6951 284.815 44.7049C285.258 44.4615 285.435 43.8771 285.21 43.3966C285.052 43.059 284.738 42.8642 284.408 42.8642ZM8.91917 43.0428C8.59008 43.0428 8.27595 43.2376 8.11739 43.5752C7.89301 44.0557 8.06952 44.64 8.5123 44.8835C10.3133 45.8736 12.1502 46.8573 13.9752 47.8053C14.4209 48.039 14.9594 47.8345 15.1719 47.3475C15.3873 46.8638 15.1988 46.2794 14.75 46.049C12.937 45.1042 11.1091 44.1271 9.32305 43.1467C9.19142 43.0785 9.0538 43.0428 8.91917 43.0428ZM273.447 48.5747C273.321 48.5747 273.196 48.6039 273.076 48.6623C271.248 49.5648 269.381 50.4576 267.532 51.3211C267.077 51.5322 266.865 52.1068 267.062 52.6002C267.257 53.0937 267.786 53.3242 268.241 53.1099C270.102 52.2431 271.981 51.3406 273.821 50.4349C274.273 50.2109 274.473 49.6362 274.267 49.146C274.114 48.7889 273.788 48.5747 273.447 48.5747ZM19.8659 48.7402C19.5248 48.7402 19.1987 48.9545 19.0491 49.3116C18.8457 49.8018 19.0461 50.3797 19.4949 50.6004C21.3318 51.5029 23.2076 52.399 25.0685 53.2657C25.5232 53.4768 26.0527 53.2495 26.2472 52.7528C26.4417 52.2594 26.2322 51.6847 25.7745 51.4737C23.9256 50.6134 22.0618 49.7239 20.2368 48.8279C20.1142 48.7662 19.9885 48.7402 19.8659 48.7402ZM262.273 53.7852C262.159 53.7852 262.045 53.8079 261.935 53.8566C260.074 54.6747 258.174 55.4863 256.292 56.2654C255.829 56.457 255.598 57.0186 255.775 57.5218C255.951 58.025 256.469 58.275 256.933 58.0834C258.826 57.2978 260.735 56.4829 262.608 55.6616C263.069 55.4603 263.29 54.8922 263.101 54.3923C262.964 54.0124 262.629 53.7852 262.273 53.7852ZM31.028 53.9215C30.6719 53.9215 30.3369 54.152 30.1963 54.5318C30.0108 55.0318 30.2322 55.5967 30.6929 55.7979C32.5627 56.616 34.4714 57.4277 36.3652 58.2068C36.8289 58.3983 37.3465 58.1451 37.523 57.6419C37.6995 57.1387 37.4661 56.5771 37.0024 56.3856C35.1206 55.6129 33.2239 54.8078 31.366 53.9929C31.2523 53.9442 31.1387 53.9215 31.028 53.9215ZM250.913 58.4892C250.811 58.4892 250.71 58.5087 250.611 58.5477C248.72 59.2846 246.794 60.0086 244.885 60.7065C244.415 60.8786 244.164 61.4305 244.319 61.9402C244.478 62.4499 244.987 62.7258 245.456 62.5537C247.377 61.8525 249.313 61.1221 251.215 60.3819C251.682 60.2001 251.924 59.6417 251.757 59.1353C251.625 58.7392 251.281 58.4892 250.913 58.4892ZM42.3815 58.5964C42.0135 58.5964 41.6665 58.8463 41.5349 59.2424C41.3673 59.7488 41.6127 60.3072 42.0794 60.4858C43.9791 61.2195 45.9177 61.9434 47.8384 62.6382C48.3111 62.807 48.8167 62.531 48.9723 62.0213C49.1279 61.5116 48.8736 60.9598 48.4039 60.7877C46.4951 60.0962 44.5685 59.3787 42.6807 58.6483C42.582 58.6126 42.4803 58.5964 42.3815 58.5964ZM239.386 62.6966C239.296 62.6966 239.207 62.7096 239.117 62.742C237.199 63.3946 235.249 64.0374 233.316 64.6509C232.84 64.8003 232.568 65.3424 232.706 65.8586C232.843 66.3748 233.343 66.6702 233.819 66.5209C235.76 65.9041 237.726 65.258 239.652 64.6022C240.125 64.4399 240.388 63.8945 240.239 63.3816C240.122 62.9628 239.769 62.6966 239.386 62.6966ZM53.8996 62.7648C53.5167 62.7648 53.1637 63.031 53.044 63.4498C52.8974 63.9627 53.1607 64.5081 53.6334 64.6704C55.56 65.3197 57.5226 65.9592 59.4672 66.5728C59.9429 66.7221 60.4395 66.4235 60.5801 65.9073C60.7178 65.3911 60.4425 64.849 59.9668 64.6996C58.0342 64.0925 56.0836 63.4563 54.1689 62.8102C54.0791 62.7778 53.9894 62.7648 53.8996 62.7648ZM227.718 66.3975C227.641 66.3975 227.563 66.4072 227.482 66.4332C225.546 67.0013 223.572 67.5597 221.615 68.0921C221.134 68.222 220.843 68.7512 220.963 69.2738C221.083 69.7965 221.57 70.1147 222.052 69.9816C224.021 69.4491 226.004 68.8875 227.952 68.3129C228.43 68.1733 228.712 67.6376 228.583 67.1182C228.475 66.6832 228.113 66.3975 227.718 66.3975ZM65.5643 66.43C65.1694 66.43 64.8045 66.7157 64.6968 67.1507C64.5681 67.6701 64.8523 68.2058 65.331 68.3421C67.2786 68.9102 69.2651 69.4654 71.2277 69.9913C71.7093 70.1211 72.197 69.803 72.3137 69.2803C72.4333 68.7577 72.1401 68.2317 71.6585 68.1019C69.7049 67.576 67.7333 67.0273 65.7947 66.4624C65.7199 66.4397 65.6421 66.43 65.5643 66.43ZM77.3547 69.5952C76.9448 69.5952 76.5739 69.9004 76.4811 70.3549C76.3704 70.8808 76.6756 71.4002 77.1572 71.5204C79.1288 72.0073 81.1332 72.4748 83.1108 72.9196C83.5954 73.0267 84.0711 72.6891 84.1698 72.1631C84.2686 71.6372 83.9574 71.121 83.4728 71.0139C81.5072 70.5724 79.5147 70.1049 77.5552 69.6244C77.4863 69.6017 77.4205 69.5952 77.3547 69.5952ZM215.925 69.5952C215.859 69.5952 215.79 69.6017 215.725 69.6212C213.768 70.1082 211.776 70.5821 209.804 71.0269C209.319 71.1373 209.008 71.6535 209.11 72.1794C209.212 72.7053 209.687 73.0462 210.172 72.9325C212.156 72.4845 214.16 72.0073 216.126 71.5171C216.61 71.397 216.909 70.8743 216.799 70.3516C216.703 69.9036 216.332 69.5952 215.925 69.5952ZM89.2468 72.2605C88.822 72.2605 88.445 72.5884 88.3642 73.0559C88.2745 73.5851 88.5946 74.0948 89.0822 74.1922C91.0747 74.5947 93.0911 74.981 95.0806 75.3414C95.5683 75.4258 96.032 75.0719 96.1128 74.5395C96.1936 74.0104 95.8645 73.5072 95.3738 73.4195C93.3963 73.0624 91.3918 72.6793 89.4113 72.2768C89.3575 72.2638 89.3036 72.2605 89.2468 72.2605ZM204.024 72.2898C203.97 72.2898 203.913 72.2962 203.856 72.306C201.888 72.7085 199.88 73.0949 197.891 73.4585C197.403 73.5461 197.071 74.0493 197.155 74.5817C197.239 75.1109 197.703 75.4712 198.19 75.3803C200.192 75.0167 202.211 74.6239 204.192 74.2214C204.679 74.1207 204.999 73.611 204.907 73.0851C204.823 72.6144 204.449 72.2898 204.024 72.2898ZM101.229 74.4259C100.792 74.4259 100.406 74.7733 100.343 75.257C100.271 75.7894 100.609 76.2829 101.1 76.3608C103.101 76.6789 105.133 76.9808 107.134 77.26C107.628 77.3282 108.077 76.9516 108.136 76.416C108.199 75.8835 107.852 75.3933 107.359 75.3284C105.369 75.0525 103.35 74.7538 101.357 74.4356C101.318 74.4291 101.273 74.4259 101.229 74.4259ZM192.036 74.4746C191.991 74.4746 191.949 74.4778 191.905 74.4843C189.918 74.8025 187.899 75.1044 185.9 75.3836C185.41 75.4518 185.06 75.9387 185.122 76.4744C185.185 77.0068 185.637 77.3866 186.128 77.3185C188.138 77.0393 190.169 76.7373 192.165 76.416C192.655 76.338 192.994 75.8413 192.922 75.3089C192.859 74.822 192.476 74.4746 192.036 74.4746ZM113.279 76.0913C112.828 76.0913 112.439 76.4614 112.388 76.9614C112.334 77.497 112.69 77.9775 113.184 78.0327C115.191 78.2664 117.231 78.4839 119.245 78.6787C119.735 78.7242 120.175 78.3313 120.217 77.7957C120.262 77.26 119.897 76.786 119.403 76.7406C117.399 76.5491 115.37 76.3315 113.375 76.0978C113.345 76.0913 113.312 76.0913 113.279 76.0913ZM179.983 76.1465C179.95 76.1465 179.917 76.1497 179.884 76.153C177.888 76.3867 175.857 76.601 173.853 76.7925C173.359 76.838 172.994 77.312 173.036 77.8476C173.078 78.3833 173.511 78.7793 174.008 78.7339C176.025 78.5424 178.065 78.3248 180.072 78.0911C180.566 78.0327 180.922 77.5522 180.868 77.0198C180.823 76.5166 180.434 76.1465 179.983 76.1465ZM125.381 77.2503C124.914 77.2503 124.519 77.6431 124.486 78.156C124.453 78.6917 124.824 79.1592 125.321 79.1949C127.337 79.3475 129.384 79.4773 131.403 79.5877C131.9 79.6202 132.319 79.2014 132.345 78.6625C132.369 78.1268 131.989 77.6691 131.493 77.6399C129.482 77.536 127.448 77.4029 125.444 77.2535C125.423 77.2535 125.402 77.2503 125.381 77.2503ZM167.875 77.299C167.854 77.299 167.833 77.299 167.812 77.3022C167.157 77.3509 166.499 77.3964 165.844 77.4418C164.488 77.5327 163.115 77.6139 161.766 77.6821C161.269 77.708 160.889 78.1625 160.913 78.7014C160.937 79.2371 161.353 79.6559 161.853 79.6267C163.211 79.5552 164.593 79.4741 165.954 79.3832C166.616 79.3377 167.277 79.2923 167.935 79.2436C168.429 79.2079 168.803 78.7436 168.77 78.2047C168.737 77.695 168.342 77.299 167.875 77.299ZM137.515 77.9061C137.033 77.9061 136.633 78.3216 136.618 78.8508C136.603 79.3897 136.992 79.8377 137.488 79.8539C139.505 79.9221 141.554 79.9675 143.579 79.9903C144.076 80 144.48 79.565 144.486 79.0261C144.492 78.4872 144.094 78.0489 143.597 78.0424C141.584 78.0197 139.547 77.971 137.542 77.9061C137.533 77.9061 137.524 77.9061 137.515 77.9061ZM155.738 77.932C155.729 77.932 155.72 77.932 155.711 77.932C153.709 77.9937 151.672 78.0327 149.656 78.0521C149.159 78.0554 148.761 78.4969 148.767 79.0358C148.77 79.5715 149.171 80 149.665 80C149.668 80 149.671 80 149.673 80C151.702 79.9805 153.751 79.9416 155.765 79.8799C156.261 79.8637 156.65 79.4156 156.635 78.88C156.62 78.3508 156.222 77.932 155.738 77.932Z" fill="white"/>
<path d="M323.104 17C322.918 17 322.73 17.0617 322.568 17.1915C321.772 17.8343 320.97 18.4706 320.163 19.1037C319.762 19.4186 319.672 20.0289 319.962 20.4639C320.252 20.8989 320.815 20.9963 321.216 20.6814C322.027 20.0451 322.834 19.4023 323.636 18.7563C324.034 18.4349 324.118 17.8246 323.822 17.3928C323.648 17.1363 323.379 17 323.104 17Z" fill="white"/>
<g clip-path="url(#clip0_319_2)">
<path d="M330.904 30.6117L328.386 30.0652L332.422 12.5748L314.771 8.75878L315.348 6.26185L335.501 10.6173L330.904 30.6117Z" fill="white"/>
</g>
<defs>
<clipPath id="clip0_319_2">
<rect width="18.6266" height="28.3448" fill="white" transform="translate(314 6.78955) rotate(-21.3771)"/>
</clipPath>
</defs>
</svg>
