<svg width="280" height="374" viewBox="0 0 280 374" fill="none" xmlns="http://www.w3.org/2000/svg">
<g clip-path="url(#clip0_319_4)">
<path d="M106.35 343.153L108.908 343.471L106.459 361.253L124.382 363.468L124.031 366.006L103.569 363.479L106.35 343.153Z" fill="white"/>
</g>
<path d="M235.143 156.996C235.239 156.799 235.492 156.641 235.826 156.6C236.312 156.537 236.785 156.744 236.877 157.062C237.069 157.7 237.255 158.34 237.437 158.981C237.527 159.298 237.205 159.603 236.718 159.662C236.231 159.72 235.763 159.511 235.674 159.194C235.493 158.557 235.308 157.922 235.117 157.287C235.087 157.187 235.098 157.087 235.143 156.996Z" fill="white"/>
<path d="M125.722 349.468C125.776 349.358 125.878 349.259 126.028 349.184C127.606 348.387 129.203 347.561 130.772 346.731C131.158 346.527 131.722 346.566 132.032 346.817C132.345 347.068 132.285 347.436 131.903 347.639C130.324 348.474 128.719 349.305 127.127 350.109C126.736 350.306 126.172 350.26 125.87 350.006C125.682 349.846 125.635 349.646 125.722 349.468ZM135.155 344.474C135.204 344.374 135.297 344.28 135.427 344.207C136.951 343.36 138.489 342.487 139.995 341.614C140.365 341.398 140.931 341.42 141.261 341.662C141.592 341.902 141.559 342.272 141.187 342.487C139.671 343.366 138.124 344.245 136.588 345.096C136.209 345.306 135.644 345.276 135.325 345.03C135.117 344.871 135.064 344.659 135.155 344.474ZM144.232 339.206C144.278 339.113 144.357 339.027 144.477 338.956C145.945 338.064 147.422 337.148 148.865 336.233C149.219 336.008 149.788 336.014 150.133 336.245C150.477 336.476 150.469 336.846 150.114 337.071C148.662 337.992 147.176 338.915 145.699 339.81C145.338 340.03 144.77 340.018 144.431 339.78C144.201 339.622 144.137 339.401 144.232 339.206ZM152.943 333.681C152.985 333.596 153.055 333.517 153.157 333.45C154.562 332.519 155.978 331.561 157.358 330.607C157.699 330.373 158.266 330.362 158.625 330.581C158.984 330.803 159.001 331.173 158.664 331.407C157.272 332.367 155.849 333.332 154.434 334.269C154.086 334.499 153.52 334.502 153.166 334.276C152.918 334.116 152.843 333.886 152.943 333.681ZM236.735 162.807C236.834 162.603 237.101 162.444 237.445 162.407C237.935 162.355 238.394 162.571 238.473 162.89C238.794 164.188 239.1 165.506 239.377 166.811C239.447 167.13 239.104 167.427 238.612 167.47C238.123 167.515 237.667 167.292 237.601 166.972C237.323 165.675 237.021 164.363 236.703 163.077C236.683 162.983 236.694 162.891 236.735 162.807ZM161.28 327.92C161.318 327.842 161.382 327.77 161.469 327.706C162.816 326.736 164.166 325.741 165.484 324.751C165.808 324.507 166.376 324.48 166.749 324.692C167.123 324.903 167.164 325.273 166.838 325.516C165.513 326.513 164.151 327.514 162.798 328.491C162.464 328.73 161.899 328.75 161.532 328.533C161.265 328.373 161.176 328.132 161.28 327.92ZM238.409 170.635C238.512 170.424 238.799 170.26 239.158 170.233C239.65 170.196 240.096 170.425 240.153 170.744C240.387 172.048 240.604 173.374 240.799 174.686C240.846 175.007 240.486 175.294 239.991 175.324C239.5 175.355 239.059 175.121 239.013 174.798C238.82 173.495 238.605 172.177 238.373 170.881C238.356 170.794 238.372 170.711 238.409 170.635ZM169.243 321.936C169.277 321.866 169.332 321.799 169.408 321.74C170.69 320.734 171.979 319.703 173.234 318.678C173.543 318.425 174.105 318.384 174.493 318.585C174.881 318.786 174.943 319.153 174.634 319.406C173.37 320.438 172.076 321.473 170.787 322.486C170.47 322.735 169.905 322.769 169.524 322.561C169.232 322.406 169.134 322.157 169.243 321.936ZM239.565 178.503C239.673 178.282 239.977 178.116 240.353 178.098C240.848 178.074 241.276 178.314 241.313 178.636C241.463 179.945 241.595 181.277 241.704 182.594C241.731 182.916 241.352 183.191 240.857 183.209C240.362 183.227 239.94 182.98 239.913 182.658C239.806 181.35 239.676 180.026 239.525 178.726C239.517 178.646 239.532 178.572 239.565 178.503ZM176.818 315.745C176.848 315.682 176.896 315.623 176.961 315.568C178.181 314.53 179.401 313.466 180.593 312.409C180.886 312.149 181.447 312.093 181.846 312.283C182.245 312.474 182.333 312.84 182.039 313.1C180.841 314.164 179.613 315.231 178.386 316.277C178.085 316.534 177.521 316.582 177.128 316.386C176.821 316.232 176.706 315.974 176.818 315.745ZM240.219 186.397C240.331 186.169 240.655 185.999 241.043 185.989C241.538 185.978 241.953 186.231 241.968 186.553C242.035 187.866 242.082 189.2 242.108 190.518C242.112 190.842 241.717 191.105 241.223 191.109C240.728 191.113 240.321 190.855 240.313 190.532C240.286 189.222 240.241 187.896 240.174 186.592C240.173 186.524 240.189 186.458 240.219 186.397ZM184.008 309.36C184.035 309.304 184.074 309.251 184.129 309.201C185.284 308.13 186.44 307.037 187.565 305.95C187.84 305.682 188.398 305.612 188.809 305.791C189.22 305.97 189.328 306.334 189.052 306.602C187.922 307.694 186.759 308.796 185.598 309.872C185.313 310.135 184.754 310.2 184.35 310.013C184.018 309.865 183.891 309.597 184.008 309.36ZM240.379 194.301C240.495 194.064 240.836 193.893 241.239 193.895C241.734 193.897 242.132 194.16 242.131 194.483C242.116 195.796 242.081 197.13 242.029 198.448C242.016 198.77 241.603 199.024 241.107 199.017C240.613 199.009 240.221 198.739 240.234 198.417C240.288 197.108 240.322 195.782 240.337 194.476C240.336 194.415 240.352 194.357 240.379 194.301ZM190.796 302.795C190.82 302.747 190.852 302.7 190.899 302.655C191.985 301.557 193.074 300.434 194.136 299.317C194.396 299.042 194.948 298.958 195.37 299.128C195.792 299.297 195.923 299.657 195.66 299.932C194.596 301.056 193.501 302.185 192.405 303.288C192.138 303.56 191.582 303.637 191.166 303.462C190.817 303.316 190.676 303.04 190.796 302.795ZM240.053 202.205C240.173 201.96 240.534 201.785 240.948 201.798C241.443 201.812 241.826 202.086 241.801 202.408C241.708 203.719 241.592 205.053 241.457 206.366C241.425 206.689 240.998 206.933 240.504 206.91C240.009 206.89 239.637 206.612 239.669 206.29C239.801 204.982 239.918 203.659 240.011 202.353C240.014 202.303 240.029 202.253 240.053 202.205ZM239.25 210.095C239.374 209.841 239.754 209.666 240.181 209.691C240.676 209.718 241.039 210.002 240.998 210.323C240.827 211.635 240.629 212.963 240.418 214.271C240.365 214.591 239.925 214.825 239.433 214.79C238.942 214.756 238.584 214.469 238.637 214.149C238.846 212.849 239.041 211.528 239.215 210.225C239.215 210.178 239.23 210.136 239.25 210.095ZM197.181 296.061C197.201 296.02 197.228 295.978 197.265 295.941C198.286 294.816 199.307 293.666 200.296 292.524C200.54 292.243 201.087 292.144 201.517 292.303C201.948 292.462 202.102 292.819 201.855 293.099C200.86 294.248 199.833 295.404 198.806 296.535C198.554 296.813 198.005 296.904 197.58 296.74C197.216 296.599 197.058 296.313 197.181 296.061ZM237.977 217.958C238.106 217.694 238.508 217.52 238.943 217.555C239.434 217.596 239.784 217.887 239.722 218.207C239.47 219.516 239.197 220.838 238.909 222.137C238.835 222.455 238.384 222.679 237.892 222.632C237.403 222.586 237.062 222.29 237.134 221.97C237.421 220.678 237.694 219.365 237.942 218.063C237.947 218.027 237.96 217.993 237.977 217.958ZM203.158 289.168C203.174 289.134 203.197 289.1 203.223 289.067C204.174 287.919 205.122 286.744 206.045 285.576C206.27 285.289 206.812 285.175 207.254 285.324C207.693 285.472 207.868 285.825 207.64 286.111C206.714 287.287 205.756 288.468 204.802 289.623C204.565 289.907 204.021 290.013 203.588 289.86C203.2 289.722 203.029 289.431 203.158 289.168ZM236.239 225.785C236.372 225.514 236.794 225.338 237.237 225.387C237.726 225.439 238.056 225.739 237.976 226.057C237.647 227.357 237.295 228.672 236.932 229.964C236.842 230.283 236.376 230.493 235.888 230.433C235.402 230.375 235.077 230.07 235.17 229.752C235.532 228.468 235.883 227.161 236.209 225.867C236.215 225.841 236.226 225.813 236.239 225.785ZM208.714 282.128C208.728 282.101 208.743 282.075 208.762 282.049C209.645 280.874 210.523 279.676 211.374 278.487C211.583 278.195 212.116 278.067 212.567 278.203C213.015 278.339 213.211 278.688 213.002 278.98C212.147 280.177 211.266 281.382 210.378 282.562C210.161 282.852 209.622 282.971 209.177 282.83C208.769 282.702 208.58 282.401 208.714 282.128ZM234.042 233.564C234.179 233.284 234.622 233.11 235.076 233.169C235.562 233.233 235.875 233.542 235.774 233.858C235.369 235.146 234.941 236.451 234.5 237.736C234.391 238.048 233.913 238.25 233.431 238.178C232.947 238.108 232.642 237.796 232.752 237.481C233.193 236.203 233.618 234.905 234.018 233.624C234.022 233.605 234.032 233.584 234.042 233.564ZM213.84 274.955C213.85 274.935 213.863 274.915 213.876 274.895C214.686 273.7 215.491 272.478 216.268 271.27C216.457 270.972 216.984 270.831 217.441 270.955C217.898 271.078 218.114 271.42 217.923 271.719C217.143 272.936 216.333 274.162 215.518 275.365C215.317 275.66 214.788 275.794 214.337 275.663C213.909 275.544 213.703 275.235 213.84 274.955ZM231.385 241.282C231.526 240.993 231.991 240.819 232.451 240.892C232.93 240.969 233.228 241.284 233.108 241.599C232.63 242.878 232.123 244.171 231.607 245.444C231.484 245.758 230.99 245.941 230.509 245.86C230.032 245.777 229.746 245.458 229.871 245.145C230.39 243.879 230.891 242.593 231.368 241.322C231.375 241.309 231.378 241.295 231.385 241.282ZM218.526 267.654C218.533 267.641 218.539 267.628 218.548 267.615C218.79 267.218 219.03 266.818 219.268 266.419C219.76 265.595 220.248 264.758 220.717 263.933C220.891 263.63 221.405 263.477 221.87 263.59C222.333 263.702 222.574 264.036 222.397 264.341C221.922 265.171 221.431 266.013 220.938 266.841C220.697 267.243 220.457 267.645 220.214 268.045C220.033 268.344 219.512 268.492 219.049 268.373C218.612 268.26 218.385 267.943 218.526 267.654ZM228.276 248.929C228.422 248.631 228.908 248.458 229.377 248.545C229.854 248.633 230.129 248.956 229.993 249.267C229.44 250.531 228.858 251.81 228.263 253.071C228.121 253.381 227.617 253.552 227.142 253.458C226.668 253.363 226.404 253.037 226.549 252.728C227.14 251.474 227.716 250.202 228.268 248.946C228.27 248.941 228.273 248.935 228.276 248.929ZM222.767 260.239C222.769 260.233 222.772 260.228 222.775 260.222C223.436 258.992 224.089 257.735 224.718 256.488C224.872 256.18 225.38 256.014 225.851 256.115C226.32 256.215 226.574 256.541 226.424 256.848C226.423 256.85 226.422 256.851 226.422 256.853C225.789 258.108 225.132 259.372 224.467 260.61C224.302 260.915 223.791 261.075 223.326 260.968C222.866 260.863 222.619 260.54 222.767 260.239Z" fill="white"/>
<path d="M118.508 352.98C118.564 352.865 118.675 352.759 118.838 352.683C119.644 352.306 120.445 351.924 121.246 351.538C121.644 351.347 122.206 351.402 122.5 351.662C122.793 351.921 122.708 352.287 122.31 352.479C121.506 352.866 120.697 353.25 119.886 353.63C119.484 353.818 118.923 353.759 118.634 353.497C118.462 353.343 118.424 353.151 118.508 352.98Z" fill="white"/>
<path d="M14.5038 19.3296C14.2691 19.1908 14.1536 18.9752 14.2351 18.7604C14.3495 18.4468 14.8347 18.2527 15.3167 18.3302C16.289 18.4823 17.2596 18.6385 18.2303 18.7974C18.7103 18.8764 19.0027 19.1941 18.8819 19.5065C18.761 19.8189 18.2734 20.009 17.7934 19.93C16.8291 19.7722 15.865 19.6172 14.8992 19.4663C14.7471 19.4421 14.6122 19.3938 14.5038 19.3296Z" fill="white"/>
<path d="M237.753 164.216C237.622 164.139 237.526 164.037 237.483 163.917C237.027 162.65 236.538 161.362 236.033 160.087C235.908 159.774 236.198 159.456 236.677 159.377C237.158 159.296 237.646 159.485 237.771 159.795C238.28 161.078 238.772 162.374 239.233 163.651C239.345 163.964 239.047 164.279 238.565 164.352C238.264 164.397 237.965 164.342 237.753 164.216ZM234.704 156.553C234.585 156.482 234.493 156.388 234.445 156.281C233.897 155.026 233.318 153.752 232.725 152.497C232.578 152.189 232.843 151.862 233.319 151.767C233.793 151.672 234.294 151.845 234.44 152.155C235.037 153.418 235.621 154.7 236.17 155.963C236.305 156.275 236.029 156.598 235.552 156.684C235.243 156.74 234.926 156.684 234.704 156.553ZM231.125 148.986C231.015 148.921 230.928 148.838 230.878 148.737C230.245 147.497 229.58 146.241 228.902 145.007C228.736 144.703 228.98 144.369 229.446 144.261C229.912 144.153 230.426 144.312 230.592 144.616C231.275 145.858 231.944 147.122 232.581 148.369C232.737 148.675 232.484 149.006 232.011 149.108C231.694 149.178 231.358 149.124 231.125 148.986ZM227.036 141.53C226.934 141.47 226.852 141.395 226.801 141.307C226.087 140.087 225.339 138.851 224.58 137.636C224.395 137.337 224.615 136.997 225.072 136.876C225.531 136.755 226.054 136.899 226.241 137.197C227.003 138.42 227.757 139.664 228.477 140.892C228.654 141.194 228.423 141.53 227.959 141.645C227.633 141.725 227.279 141.674 227.036 141.53ZM222.46 134.197C222.367 134.142 222.292 134.074 222.24 133.995C221.446 132.794 220.617 131.581 219.784 130.388C219.578 130.095 219.777 129.748 220.228 129.615C220.678 129.481 221.212 129.611 221.416 129.905C222.257 131.105 223.088 132.328 223.889 133.535C224.084 133.832 223.877 134.175 223.421 134.302C223.087 134.394 222.713 134.346 222.46 134.197ZM217.418 126.992C217.334 126.942 217.264 126.882 217.212 126.812C216.341 125.634 215.438 124.442 214.528 123.273C214.303 122.985 214.481 122.635 214.923 122.489C215.365 122.343 215.903 122.459 216.127 122.747C217.042 123.924 217.95 125.122 218.828 126.306C219.044 126.597 218.856 126.946 218.407 127.086C218.07 127.194 217.681 127.148 217.418 126.992ZM211.924 119.931C211.849 119.886 211.786 119.833 211.737 119.772C210.794 118.617 209.817 117.453 208.836 116.307C208.595 116.025 208.751 115.67 209.182 115.512C209.615 115.356 210.162 115.456 210.403 115.738C211.39 116.89 212.37 118.062 213.32 119.223C213.553 119.508 213.386 119.862 212.949 120.013C212.606 120.132 212.197 120.092 211.924 119.931ZM205.999 113.016C205.933 112.977 205.875 112.932 205.828 112.878C204.813 111.749 203.768 110.61 202.718 109.491C202.458 109.216 202.592 108.857 203.014 108.688C203.435 108.519 203.988 108.607 204.247 108.882C205.302 110.006 206.357 111.153 207.377 112.288C207.626 112.567 207.483 112.924 207.055 113.086C206.709 113.22 206.283 113.184 205.999 113.016ZM199.657 106.265C199.599 106.231 199.548 106.192 199.504 106.146C198.424 105.046 197.308 103.933 196.19 102.84C195.914 102.572 196.027 102.21 196.439 102.031C196.851 101.851 197.409 101.924 197.683 102.194C198.81 103.292 199.93 104.41 201.016 105.517C201.283 105.789 201.16 106.15 200.743 106.324C200.394 106.47 199.949 106.438 199.657 106.265ZM79.6814 35.2384C79.3892 35.0654 79.296 34.7789 79.4857 34.5387C79.7121 34.252 80.2541 34.1388 80.6928 34.288C82.4858 34.8889 84.2996 35.5126 86.0776 36.1388C86.5144 36.2921 86.6783 36.6468 86.441 36.9297C86.2059 37.214 85.6633 37.3189 85.2264 37.1656C83.4551 36.5433 81.6564 35.9233 79.872 35.3249C79.8026 35.3022 79.739 35.2724 79.6814 35.2384ZM90.3664 38.9977C90.0631 38.8182 89.9775 38.5204 90.1903 38.2781C90.4341 37.9964 90.9815 37.8996 91.4123 38.0573C93.1728 38.7046 94.9456 39.3751 96.6844 40.0438C97.1094 40.2085 97.2523 40.5666 96.9997 40.8431C96.7471 41.1197 96.1973 41.2124 95.7723 41.0477C94.0444 40.3827 92.2804 39.7175 90.5328 39.0725C90.4678 39.0524 90.4151 39.0265 90.3664 38.9977ZM192.91 99.6818C192.861 99.653 192.814 99.62 192.778 99.5825C191.631 98.5096 190.45 97.4268 189.267 96.3661C188.976 96.1049 189.066 95.7397 189.467 95.551C189.868 95.3622 190.431 95.4193 190.719 95.682C191.909 96.7493 193.097 97.8388 194.248 98.9171C194.532 99.1826 194.43 99.5455 194.025 99.7288C193.676 99.8856 193.211 99.86 192.91 99.6818ZM100.817 43.0233C100.503 42.8372 100.427 42.5267 100.656 42.284C100.918 42.0099 101.47 41.924 101.891 42.0944C103.615 42.7884 105.346 43.5001 107.042 44.2115C107.455 44.3876 107.579 44.7476 107.309 45.0192C107.041 45.2893 106.486 45.3684 106.069 45.1924C104.384 44.4848 102.664 43.7769 100.949 43.0881C100.901 43.0703 100.859 43.0482 100.817 43.0233ZM185.771 93.2747C185.732 93.2511 185.694 93.2234 185.657 93.1942C184.45 92.1535 183.204 91.103 181.957 90.0705C181.65 89.818 181.716 89.4494 182.108 89.2499C182.497 89.0519 183.063 89.0951 183.368 89.349C184.624 90.3868 185.875 91.4454 187.091 92.4913C187.39 92.7495 187.311 93.1157 186.917 93.3084C186.564 93.4805 186.086 93.4608 185.771 93.2747ZM111.025 47.31C110.701 47.1187 110.631 46.7956 110.884 46.5535C111.16 46.2859 111.716 46.2151 112.127 46.3954C113.806 47.1307 115.496 47.8864 117.15 48.6391C117.557 48.825 117.656 49.1886 117.369 49.4524C117.086 49.7161 116.525 49.7815 116.12 49.5942C114.477 48.8453 112.797 48.0934 111.126 47.362C111.093 47.3478 111.058 47.3296 111.025 47.31ZM178.253 87.0557C178.22 87.0361 178.191 87.0163 178.162 86.9938C176.889 85.9827 175.581 84.9644 174.275 83.9654C173.954 83.7203 173.997 83.351 174.375 83.1409C174.751 82.9322 175.321 82.9616 175.642 83.2067C176.957 84.211 178.273 85.2345 179.551 86.2509C179.865 86.5004 179.808 86.8687 179.425 87.0734C179.077 87.2619 178.579 87.2483 178.253 87.0557ZM120.973 51.8486C120.639 51.6507 120.58 51.3162 120.852 51.0722C121.144 50.811 121.705 50.7538 122.105 50.9455C123.735 51.7209 125.379 52.518 126.99 53.3133C127.381 53.508 127.463 53.8748 127.163 54.1308C126.864 54.3881 126.301 54.4385 125.907 54.2424C124.305 53.4496 122.67 52.6578 121.048 51.8876C121.022 51.8774 120.998 51.863 120.973 51.8486ZM170.369 81.0355C170.344 81.021 170.322 81.0052 170.3 80.9894C168.968 80.0118 167.597 79.0271 166.232 78.0644C165.895 77.828 165.919 77.4579 166.281 77.2387C166.644 77.0194 167.21 77.0337 167.55 77.2713C168.923 78.2394 170.298 79.2294 171.639 80.2122C171.968 80.4543 171.934 80.8233 171.565 81.0359C171.22 81.2395 170.703 81.2333 170.369 81.0355ZM130.646 56.6341C130.301 56.4297 130.252 56.0825 130.545 55.8406C130.852 55.5885 131.416 55.5436 131.806 55.7453C133.393 56.5606 134.987 57.3992 136.55 58.2346C136.938 58.4377 136.988 58.8069 136.675 59.0577C136.361 59.3058 135.796 59.3424 135.41 59.1379C133.858 58.3036 132.271 57.4717 130.695 56.6601C130.679 56.651 130.662 56.6432 130.646 56.6341ZM162.123 75.222C162.107 75.2128 162.092 75.2037 162.078 75.1931C161.623 74.8845 161.165 74.5761 160.708 74.2691C159.761 73.6352 158.795 72.9979 157.839 72.3767C157.488 72.1477 157.488 71.7797 157.839 71.5512C158.189 71.324 158.756 71.3204 159.107 71.5521C160.068 72.1786 161.041 72.8199 161.992 73.4564C162.453 73.7661 162.914 74.0758 163.371 74.3856C163.714 74.6176 163.703 74.9873 163.345 75.212C163.005 75.4237 162.468 75.4264 162.123 75.222ZM140.032 61.6572C139.675 61.4463 139.636 61.0864 139.953 60.8451C140.275 60.5995 140.841 60.5711 141.218 60.7814C142.752 61.6342 144.297 62.5115 145.81 63.3884C146.184 63.6015 146.213 63.9714 145.884 64.2131C145.555 64.4547 144.989 64.4749 144.617 64.2603C143.113 63.3886 141.575 62.518 140.052 61.669C140.045 61.6651 140.039 61.6611 140.032 61.6572ZM153.533 69.6259C153.526 69.6219 153.52 69.618 153.513 69.6141C152.07 68.7102 150.586 67.8007 149.106 66.909C148.741 66.6901 148.72 66.32 149.058 66.0836C149.392 65.8473 149.954 65.8328 150.319 66.0489C150.321 66.0502 150.324 66.0516 150.326 66.0529C151.815 66.9498 153.307 67.8645 154.759 68.7736C155.116 68.9983 155.127 69.3674 154.784 69.5984C154.445 69.8266 153.892 69.8381 153.533 69.6259Z" fill="white"/>
<path d="M239.655 169.949C239.518 169.868 239.417 169.758 239.378 169.629C239.187 168.996 238.987 168.362 238.782 167.728C238.68 167.413 238.991 167.102 239.476 167.037C239.96 166.971 240.436 167.174 240.538 167.489C240.744 168.126 240.944 168.765 241.137 169.403C241.232 169.72 240.916 170.027 240.43 170.089C240.143 170.127 239.859 170.069 239.655 169.949Z" fill="white"/>
<defs>
<clipPath id="clip0_319_4">
<rect width="18.6266" height="28.3448" fill="white" transform="translate(125.327 365.359) rotate(153.467)"/>
</clipPath>
</defs>
</svg>
