<svg width="349" height="82" viewBox="0 0 349 82" fill="none" xmlns="http://www.w3.org/2000/svg">
<g clip-path="url(#clip0_319_3)">
<path d="M319.921 72.8223L319.448 70.2894L337.134 67.2238L333.803 49.4745L336.328 49.0378L340.133 69.3019L319.921 72.8223Z" fill="white"/>
</g>
<path d="M0.897316 38.2502C0.580193 38.2502 0.272047 38.0828 0.110494 37.784C-0.128844 37.3506 0.0297174 36.8036 0.466508 36.5675C1.34308 36.0863 2.22265 35.6111 3.1052 35.1389C3.54199 34.9058 4.08649 35.0702 4.31984 35.5065C4.55319 35.9429 4.38865 36.4868 3.95186 36.72C3.07529 37.1892 2.2017 37.6614 1.33111 38.1396C1.1935 38.2143 1.04391 38.2502 0.897316 38.2502Z" fill="white"/>
<path d="M315.773 52.7637C315.596 52.7637 315.42 52.7129 315.264 52.6053C313.619 51.4725 311.925 50.3368 310.235 49.228C309.819 48.956 309.705 48.4001 309.978 47.9876C310.25 47.5722 310.806 47.4586 311.219 47.7276C312.922 48.8424 314.624 49.9841 316.284 51.1258C316.691 51.4068 316.796 51.9657 316.515 52.3722C316.338 52.6262 316.06 52.7637 315.773 52.7637ZM305.601 46.1047C305.439 46.1047 305.275 46.0599 305.128 45.9702C303.426 44.9122 301.682 43.8542 299.946 42.826C299.519 42.575 299.378 42.025 299.632 41.5976C299.884 41.1703 300.434 41.0298 300.862 41.2838C302.609 42.3179 304.365 43.3819 306.077 44.4489C306.498 44.7119 306.627 45.2649 306.364 45.6833C306.193 45.9553 305.9 46.1047 305.601 46.1047ZM295.136 39.912C294.986 39.912 294.837 39.8761 294.696 39.7954C292.946 38.8121 291.157 37.8318 289.38 36.8844C288.943 36.6512 288.778 36.1073 289.012 35.6709C289.245 35.2346 289.79 35.0702 290.226 35.3033C292.015 36.2567 293.816 37.243 295.576 38.2323C296.006 38.4744 296.162 39.0213 295.917 39.4547C295.755 39.7476 295.45 39.912 295.136 39.912ZM284.408 34.1885C284.27 34.1885 284.132 34.1586 284.004 34.0929C282.215 33.1873 280.384 32.2847 278.568 31.4149C278.122 31.1997 277.933 30.6647 278.146 30.2194C278.361 29.7741 278.897 29.5858 279.342 29.798C281.17 30.6767 283.013 31.5823 284.814 32.4939C285.257 32.718 285.434 33.256 285.209 33.6983C285.051 34.0092 284.737 34.1885 284.408 34.1885ZM8.91819 34.0241C8.5891 34.0241 8.27497 33.8448 8.11641 33.534C7.89203 33.0916 8.06855 32.5536 8.51132 32.3295C10.3123 31.4179 12.1492 30.5123 13.9742 29.6396C14.42 29.4244 14.9585 29.6127 15.1709 30.061C15.3863 30.5063 15.1978 31.0443 14.749 31.2565C12.9361 32.1263 11.1081 33.0259 9.32207 33.9285C9.19044 33.9912 9.05282 34.0241 8.91819 34.0241ZM273.446 28.9313C273.32 28.9313 273.195 28.9044 273.075 28.8506C271.247 28.0197 269.38 27.1978 267.531 26.4028C267.076 26.2085 266.864 25.6795 267.062 25.2252C267.256 24.7709 267.786 24.5587 268.24 24.756C270.101 25.554 271.98 26.3848 273.82 27.2187C274.272 27.4249 274.472 27.9539 274.266 28.4052C274.113 28.734 273.787 28.9313 273.446 28.9313ZM19.8649 28.7788C19.5238 28.7788 19.1977 28.5816 19.0481 28.2528C18.8447 27.8015 19.0452 27.2695 19.4939 27.0663C21.3308 26.2354 23.2066 25.4105 25.0675 24.6125C25.5222 24.4182 26.0518 24.6274 26.2462 25.0847C26.4407 25.539 26.2313 26.068 25.7735 26.2623C23.9246 27.0543 22.0608 27.8732 20.2359 28.6981C20.1132 28.7549 19.9875 28.7788 19.8649 28.7788ZM262.272 24.1343C262.158 24.1343 262.044 24.1134 261.934 24.0685C260.073 23.3154 258.173 22.5682 256.291 21.8509C255.828 21.6745 255.597 21.1575 255.774 20.6942C255.95 20.231 256.468 20.0008 256.932 20.1772C258.825 20.9004 260.734 21.6506 262.607 22.4068C263.068 22.5921 263.289 23.1151 263.1 23.5754C262.963 23.9251 262.628 24.1343 262.272 24.1343ZM31.027 24.0088C30.671 24.0088 30.3359 23.7966 30.1953 23.4469C30.0098 22.9866 30.2312 22.4666 30.6919 22.2813C32.5617 21.5281 34.4705 20.7809 36.3642 20.0636C36.8279 19.8873 37.3455 20.1204 37.522 20.5836C37.6985 21.0469 37.4652 21.5639 37.0014 21.7403C35.1197 22.4516 33.2229 23.1928 31.365 23.943C31.2514 23.9878 31.1377 24.0088 31.027 24.0088ZM250.912 19.8036C250.811 19.8036 250.709 19.7856 250.61 19.7498C248.719 19.0713 246.793 18.4048 244.884 17.7622C244.414 17.6038 244.163 17.0957 244.318 16.6265C244.477 16.1573 244.986 15.9032 245.455 16.0616C247.376 16.7072 249.312 17.3797 251.214 18.0611C251.681 18.2285 251.923 18.7426 251.756 19.2088C251.624 19.5734 251.28 19.8036 250.912 19.8036ZM42.3806 19.7049C42.0126 19.7049 41.6655 19.4748 41.5339 19.1102C41.3664 18.6439 41.6117 18.1299 42.0784 17.9655C43.9781 17.29 45.9168 16.6235 47.8374 15.9839C48.3101 15.8285 48.8157 16.0826 48.9713 16.5518C49.1269 17.021 48.8726 17.5291 48.4029 17.6875C46.4942 18.3241 44.5675 18.9846 42.6797 19.6571C42.581 19.69 42.4793 19.7049 42.3806 19.7049ZM239.385 15.9301C239.295 15.9301 239.206 15.9182 239.116 15.8883C237.198 15.2875 235.248 14.6958 233.315 14.1309C232.839 13.9934 232.567 13.4943 232.705 13.0191C232.842 12.5439 233.342 12.2719 233.818 12.4094C235.759 12.9772 237.725 13.572 239.651 14.1757C240.124 14.3252 240.387 14.8273 240.238 15.2995C240.121 15.685 239.768 15.9301 239.385 15.9301ZM53.8987 15.8674C53.5157 15.8674 53.1627 15.6223 53.043 15.2367C52.8964 14.7645 53.1597 14.2624 53.6324 14.113C55.5591 13.5152 57.5216 12.9264 59.4663 12.3615C59.9419 12.2241 60.4386 12.499 60.5792 12.9742C60.7168 13.4494 60.4416 13.9486 59.9659 14.0861C58.0332 14.645 56.0826 15.2308 54.1679 15.8255C54.0782 15.8554 53.9884 15.8674 53.8987 15.8674ZM227.717 12.5229C227.64 12.5229 227.562 12.514 227.481 12.4901C225.545 11.967 223.571 11.453 221.614 10.9628C221.133 10.8432 220.842 10.3561 220.962 9.87488C221.082 9.39369 221.569 9.10079 222.051 9.22333C224.02 9.71349 226.003 10.2305 227.951 10.7596C228.429 10.8881 228.711 11.3812 228.582 11.8594C228.474 12.2599 228.112 12.5229 227.717 12.5229ZM65.5634 12.493C65.1685 12.493 64.8035 12.23 64.6958 11.8295C64.5671 11.3513 64.8513 10.8582 65.33 10.7327C67.2776 10.2096 69.2641 9.69855 71.2267 9.21437C71.7084 9.09482 72.196 9.38772 72.3127 9.86891C72.4324 10.3501 72.1392 10.8343 71.6575 10.9538C69.7039 11.438 67.7324 11.9431 65.7937 12.4632C65.7189 12.4841 65.6412 12.493 65.5634 12.493ZM77.3537 9.579C76.9439 9.579 76.5729 9.29805 76.4801 8.87962C76.3695 8.39544 76.6746 7.91724 77.1563 7.80666C79.1278 7.35834 81.1323 6.92796 83.1098 6.5185C83.5945 6.41987 84.0701 6.7307 84.1689 7.21488C84.2676 7.69906 83.9565 8.17428 83.4718 8.27291C81.5062 8.67938 79.5138 9.10976 77.5542 9.5521C77.4854 9.57302 77.4195 9.579 77.3537 9.579ZM215.924 9.579C215.858 9.579 215.789 9.57302 215.724 9.55509C213.767 9.10677 211.775 8.67041 209.803 8.26095C209.318 8.15933 209.007 7.68412 209.109 7.19994C209.211 6.71576 209.686 6.40194 210.171 6.50654C212.155 6.91899 214.159 7.35834 216.125 7.80965C216.609 7.92023 216.908 8.40142 216.798 8.88261C216.702 9.29506 216.331 9.579 215.924 9.579ZM89.2458 7.12522C88.821 7.12522 88.444 6.82335 88.3632 6.39297C88.2735 5.9058 88.5936 5.43657 89.0813 5.3469C91.0737 4.9763 93.0902 4.62063 95.0797 4.28888C95.5673 4.21117 96.031 4.53695 96.1118 5.0271C96.1926 5.51427 95.8635 5.97753 95.3728 6.05823C93.3953 6.38699 91.3909 6.73967 89.4103 7.11028C89.3565 7.12223 89.3027 7.12522 89.2458 7.12522ZM204.023 7.09832C203.969 7.09832 203.912 7.09234 203.856 7.08338C201.887 6.71277 199.88 6.35711 197.89 6.02236C197.402 5.94167 197.07 5.47841 197.154 4.98825C197.238 4.50108 197.702 4.16933 198.189 4.25301C200.191 4.58776 202.21 4.9494 204.191 5.32C204.678 5.41266 204.998 5.88189 204.906 6.36607C204.822 6.79944 204.448 7.09832 204.023 7.09832ZM101.228 5.13171C100.791 5.13171 100.405 4.81191 100.342 4.36659C100.27 3.87643 100.608 3.42214 101.099 3.35041C103.1 3.05751 105.132 2.77955 107.133 2.52252C107.627 2.45975 108.076 2.80645 108.136 3.2996C108.198 3.78976 107.851 4.24106 107.358 4.30084C105.368 4.55488 103.349 4.82985 101.356 5.12275C101.317 5.12872 101.273 5.13171 101.228 5.13171ZM192.035 5.08688C191.99 5.08688 191.948 5.08389 191.904 5.07791C189.917 4.78502 187.898 4.50706 185.899 4.25003C185.409 4.18726 185.059 3.73895 185.121 3.2458C185.184 2.75564 185.636 2.40596 186.127 2.46872C188.137 2.72575 190.168 3.00371 192.164 3.2996C192.655 3.37133 192.993 3.82861 192.921 4.31877C192.858 4.76708 192.475 5.08688 192.035 5.08688ZM113.278 3.59847C112.827 3.59847 112.438 3.25776 112.387 2.79749C112.333 2.30434 112.689 1.862 113.183 1.81119C115.19 1.596 117.23 1.39575 119.244 1.21643C119.734 1.17459 120.174 1.53623 120.216 2.02937C120.261 2.52252 119.896 2.95888 119.402 3.00072C117.398 3.17706 115.369 3.37731 113.374 3.5925C113.344 3.59847 113.311 3.59847 113.278 3.59847ZM179.982 3.54767C179.949 3.54767 179.916 3.54468 179.883 3.54169C177.887 3.3265 175.856 3.12924 173.852 2.9529C173.358 2.91106 172.993 2.4747 173.035 1.98155C173.077 1.48841 173.511 1.12378 174.007 1.16562C176.024 1.34196 178.064 1.5422 180.071 1.75739C180.565 1.81119 180.921 2.25353 180.867 2.74369C180.822 3.20695 180.433 3.54767 179.982 3.54767ZM125.38 2.53149C124.913 2.53149 124.518 2.16984 124.485 1.69762C124.452 1.20447 124.823 0.774091 125.32 0.741214C127.336 0.600742 129.383 0.481191 131.402 0.379573C131.899 0.349686 132.318 0.735237 132.344 1.23137C132.368 1.72452 131.988 2.14593 131.492 2.17283C129.481 2.26847 127.447 2.39101 125.443 2.5285C125.422 2.5285 125.401 2.53149 125.38 2.53149ZM167.874 2.48665C167.853 2.48665 167.832 2.48665 167.811 2.48366C167.156 2.43883 166.498 2.39699 165.843 2.35515C164.488 2.27146 163.114 2.19674 161.765 2.13398C161.268 2.11007 160.888 1.69164 160.912 1.19551C160.936 0.70236 161.352 0.316809 161.852 0.343708C163.21 0.409461 164.592 0.48418 165.953 0.567866C166.615 0.609708 167.276 0.651551 167.934 0.696383C168.428 0.729259 168.802 1.15665 168.769 1.65279C168.736 2.12202 168.341 2.48665 167.874 2.48665ZM137.514 1.92775C137.033 1.92775 136.632 1.54519 136.617 1.05802C136.602 0.561888 136.991 0.149438 137.487 0.134494C139.504 0.0717304 141.553 0.0298877 143.578 0.0089663C144.075 0 144.479 0.400495 144.485 0.89663C144.491 1.39277 144.093 1.79625 143.596 1.80223C141.583 1.82315 139.546 1.86798 137.541 1.92775C137.532 1.92775 137.523 1.92775 137.514 1.92775ZM155.737 1.90384C155.728 1.90384 155.719 1.90384 155.71 1.90384C153.708 1.84706 151.671 1.81119 149.655 1.79326C149.158 1.79027 148.76 1.3838 148.766 0.887664C148.769 0.394517 149.17 0 149.664 0C149.667 0 149.67 0 149.673 0C151.701 0.0179326 153.75 0.0537978 155.764 0.110584C156.26 0.125528 156.649 0.537978 156.634 1.03112C156.619 1.51829 156.221 1.90384 155.737 1.90384Z" fill="white"/>
<path d="M323.103 58C322.917 58 322.729 57.9433 322.567 57.8237C321.771 57.2319 320.97 56.6461 320.162 56.0633C319.761 55.7734 319.671 55.2115 319.961 54.811C320.251 54.4105 320.814 54.3209 321.215 54.6108C322.026 55.1966 322.833 55.7884 323.635 56.3831C324.033 56.679 324.117 57.2409 323.821 57.6384C323.647 57.8745 323.378 58 323.103 58Z" fill="white"/>
<defs>
<clipPath id="clip0_319_3">
<rect width="18.6266" height="28.3448" fill="white" transform="translate(335.319 48) rotate(45.794)"/>
</clipPath>
</defs>
</svg>
